<?xml version="1.0" encoding="UTF-8" standalone="no"?>
<svg
   xmlns:dc="http://purl.org/dc/elements/1.1/"
   xmlns:cc="http://creativecommons.org/ns#"
   xmlns:rdf="http://www.w3.org/1999/02/22-rdf-syntax-ns#"
   xmlns:svg="http://www.w3.org/2000/svg"
   xmlns="http://www.w3.org/2000/svg"
   xmlns:sodipodi="http://sodipodi.sourceforge.net/DTD/sodipodi-0.dtd"
   xmlns:inkscape="http://www.inkscape.org/namespaces/inkscape"
   inkscape:version="1.0 (4035a4fb49, 2020-05-01)"
   sodipodi:docname="automation.svg"
   id="svg1528"
   version="1.1"
   overflow="hidden"
   xml:space="preserve"
   height="107"
   width="120"><metadata
     id="metadata1532"><rdf:RDF><cc:Work
         rdf:about=""><dc:format>image/svg+xml</dc:format><dc:type
           rdf:resource="http://purl.org/dc/dcmitype/StillImage" /><dc:title></dc:title></cc:Work></rdf:RDF></metadata><sodipodi:namedview
     inkscape:current-layer="svg1528"
     inkscape:window-maximized="1"
     inkscape:window-y="-8"
     inkscape:window-x="-8"
     inkscape:cy="53.5"
     inkscape:cx="60"
     inkscape:zoom="6.8691589"
     showgrid="false"
     id="namedview1530"
     inkscape:window-height="992"
     inkscape:window-width="1620"
     inkscape:pageshadow="2"
     inkscape:pageopacity="0"
     guidetolerance="10"
     gridtolerance="10"
     objecttolerance="10"
     borderopacity="1"
     bordercolor="#666666"
     pagecolor="#ffffff" /><defs
     id="defs1522"><clipPath
       id="clip0"><rect
         id="rect1519"
         height="107"
         width="120"
         y="1631"
         x="121" /></clipPath><clipPath
       id="clip0-4"><rect
         x="402"
         y="556"
         width="41"
         height="42"
         id="rect928" /></clipPath><clipPath
       id="clip0-0"><rect
         x="128"
         y="1935"
         width="105"
         height="98"
         id="rect2134" /></clipPath></defs><g
     clip-path="url(#clip0-0)"
     transform="translate(-118.74084,-1929.2626)"
     id="g2141"><path
       d="m 194.697,2016.57 c -3.276,3.28 -8.635,5.38 -12.804,6.57 0,0 0,0 0,9.86 0,0 0,0 -17.865,0 0,0 0,0 0,-11.05 -7.444,-1.2 -13.697,-5.38 -19.056,-11.06 0,0 0,0 -8.635,4.48 0,0 0,0 -8.337,-16.43 0,0 0,0 8.337,-4.48 -0.893,-3.29 -2.084,-6.58 -2.084,-11.06 0,-3.28 1.191,-7.77 2.084,-11.05 0,0 0,0 -8.337,-4.19 0,0 0,0 8.337,-16.73 0,0 0,0 8.635,4.48 5.359,-5.37 11.612,-9.86 19.056,-11.05 0,0 0,0 0,-9.86 0,0 0,0 17.865,0 0,0 0,0 0,8.96 7.444,2.09 14.888,6.58 20.247,11.95 0,0 0,0 7.444,-4.48 0,0 0,0 9.528,16.73 0,0 0,0 -8.634,4.19 1.191,3.28 1.488,7.47 1.488,11.05 0,2.09 0,4.78 -0.893,7.77 m -27.691,-26.29 c -2.978,-2.09 -6.253,-3.29 -10.719,-3.29 -12.804,0 -22.332,11.06 -22.332,23.01 0,8.66 2.978,15.24 9.528,19.42 m 30.371,2.09 c 30.073,19.12 30.073,19.12 30.073,19.12 3.871,2.39 8.933,1.5 11.315,-2.39 2.382,-3.58 1.489,-8.66 -2.382,-11.35 -30.669,-18.23 -30.669,-18.23 -30.669,-18.23 -0.595,-0.3 -0.595,-0.3 -0.595,-0.3 0.298,-1.49 0,-2.98 -0.298,-4.48 -1.786,-8.36 -10.123,-14.04 -18.461,-11.95 -2.977,0.6 -5.955,2.09 -8.039,4.18 14.59,8.97 14.59,8.97 14.59,8.97 -3.573,4.78 -3.573,4.78 -3.573,4.78 -13.994,-8.97 -13.994,-8.97 -13.994,-8.97 -1.191,2.99 -1.787,6.28 -0.894,9.56 1.787,8.37 9.826,13.75 18.461,11.96 1.191,-0.3 2.68,-0.6 3.871,-1.2 z"
       fill-rule="evenodd"
       id="path2139" /></g></svg>
