<svg width="96" height="96" xmlns="http://www.w3.org/2000/svg" xmlns:xlink="http://www.w3.org/1999/xlink" xml:space="preserve" overflow="hidden"><defs><clipPath id="clip0"><rect x="592" y="312" width="96" height="96"/></clipPath></defs><g clip-path="url(#clip0)" transform="translate(-592 -312)"><path d="M665.9 314 665.9 314C666.6 316.6 668.5 318.8 671 320L671 320C668.5 321.2 666.7 323.4 665.9 326L665.9 326C665.2 323.4 663.3 321.2 660.8 320L660.8 320C663.3 318.8 665.2 316.6 665.9 314Z"/><path d="M601.9 336 601.9 336C602.6 338.6 604.5 340.8 607 342L607 342C604.5 343.2 602.7 345.4 601.9 348L601.9 348C601.2 345.4 599.3 343.2 596.8 342L596.8 342C599.3 340.8 601.2 338.6 601.9 336Z"/><path d="M611.8 316 611.8 316C612.4 318.2 614 320 616 321L616 321C613.9 322 612.4 323.8 611.8 326L611.8 326C611.2 323.8 609.6 322 607.6 321L607.6 321C609.6 320 611.2 318.2 611.8 316Z"/><path d="M677.8 332 677.8 332C678.4 334.2 680 336 682 337L682 337C679.9 338 678.4 339.8 677.8 342L677.8 342C677.2 339.8 675.6 338 673.6 337L673.6 337C675.6 336 677.2 334.2 677.8 332Z"/><path d="M640 351.5C639.2 351.5 638.5 350.8 638.5 350L638.5 340C638.5 339.2 639.2 338.5 640 338.5 640.8 338.5 641.5 339.2 641.5 340L641.5 350C641.5 350.8 640.8 351.5 640 351.5Z"/><path d="M640 335.5C639.2 335.5 638.5 334.8 638.5 334L638.5 326C638.5 325.2 639.2 324.5 640 324.5 640.8 324.5 641.5 325.2 641.5 326L641.5 334C641.5 334.8 640.8 335.5 640 335.5Z"/><path d="M640 321.5C639.2 321.5 638.5 320.8 638.5 320L638.5 316C638.5 315.2 639.2 314.5 640 314.5 640.8 314.5 641.5 315.2 641.5 316L641.5 320C641.5 320.8 640.8 321.5 640 321.5Z"/><path d="M651 344.5C650.9 344.5 650.8 344.5 650.7 344.5 649.9 344.3 649.4 343.5 649.6 342.7L651.3 334.9C651.5 334.1 652.3 333.6 653.1 333.8 653.9 334 654.4 334.8 654.2 335.6L652.5 343.4C652.3 344 651.7 344.5 651 344.5Z"/><path d="M654 330.8C653.9 330.8 653.8 330.8 653.7 330.8 652.9 330.6 652.4 329.8 652.6 329L652.6 329 653.9 323.1C654.1 322.3 654.8 321.8 655.7 321.9 656.5 322.1 657 322.8 656.9 323.7 656.9 323.7 656.9 323.7 656.9 323.8L655.6 329.7C655.3 330.3 654.7 330.8 654 330.8Z"/><path d="M661 342.5C660.2 342.5 659.5 341.8 659.5 341 659.5 340.7 659.6 340.4 659.8 340.1L666.6 330.2C667.1 329.5 668 329.4 668.7 329.9 669.3 330.4 669.5 331.2 669.1 331.9L662.3 341.8C662 342.3 661.5 342.5 661 342.5Z"/><path d="M629 344.5C628.3 344.5 627.7 344 627.5 343.3L625.4 333.5C625.2 332.7 625.8 331.9 626.6 331.7 627.4 331.5 628.2 332 628.3 332.8L630.4 342.6C630.6 343.4 630.1 344.2 629.3 344.4 629.2 344.5 629.1 344.5 629 344.5Z"/><path d="M625.6 328.9C624.9 328.9 624.3 328.4 624.1 327.7L623.3 323.8C623.1 323 623.6 322.2 624.4 322 625.2 321.8 626 322.3 626.2 323.1 626.2 323.1 626.2 323.1 626.2 323.2L627 327.1C627.2 327.9 626.7 328.7 625.9 328.9L625.9 328.9C625.8 328.9 625.7 328.9 625.6 328.9L625.6 328.9Z"/><path d="M619 342.5C618.5 342.5 618 342.3 617.8 341.9L611 332C610.6 331.3 610.8 330.4 611.5 329.9 612.2 329.5 613 329.6 613.5 330.3L620.3 340.2C620.8 340.9 620.6 341.8 619.9 342.3 619.6 342.4 619.3 342.5 619 342.5Z"/><path d="M683.8 393.9 680.8 361.5C680.7 360.5 679.8 359.7 678.8 359.7 678.4 359.7 677.8 359.7 677.3 359.7L676.8 353.9 675 353.8C673.5 353.7 672 353.8 670.6 353.9L670.1 348.5 668.6 348.2C658.1 346.9 647.6 350.4 640 357.8 632.4 350.4 621.9 346.9 611.4 348.2L609.9 348.5 609.4 353.9C607.9 353.8 606.5 353.7 605 353.8L603.3 353.9 602.8 359.7C602.2 359.7 601.7 359.7 601.3 359.7 600.3 359.7 599.4 360.5 599.3 361.5L596.3 393.9C596.1 395 596.9 396 598 396.1 598.1 396.1 598.2 396.1 598.3 396.1 604.4 395.9 621.5 396.3 635.4 405.4 636.1 405.8 636.8 406.1 637.6 406.1L642.6 406.1C643.4 406.1 644.1 405.9 644.7 405.5 659.3 396.4 675.9 396 681.8 396.2 682.9 396.2 683.8 395.4 683.9 394.3 683.8 394 683.8 394 683.8 393.9ZM642 361.4C648.4 354.8 657.3 351.4 666.4 351.9L669.1 382.9C664.4 383.8 652.2 386.8 642 395.6L642 361.4ZM613.6 352C622.7 351.5 631.6 354.9 638 361.5L638 395.7C627.8 386.9 615.6 383.9 610.9 383L613.6 352ZM604 389 607 357.7C607.6 357.7 608.3 357.8 609.1 357.8L606.6 386.4 608.5 386.6C608.7 386.6 625.6 388.8 637.4 400.5L637.4 400.5C624.3 390.5 609.7 389.2 604 389ZM642.6 400.7 642.6 400.7C654.6 388.9 671.4 386.6 671.5 386.6L673.4 386.4 670.9 357.8C671.7 357.7 672.4 357.7 673 357.7L676 389C670.3 389.2 655.7 390.6 642.6 400.7Z"/></g></svg>