<svg width="96" height="96" xmlns="http://www.w3.org/2000/svg" xmlns:xlink="http://www.w3.org/1999/xlink" xml:space="preserve" overflow="hidden"><defs><clipPath id="clip0"><rect x="47" y="222" width="96" height="96"/></clipPath></defs><g clip-path="url(#clip0)" transform="translate(-47 -222)"><path d="M131.006 235.999 59.0058 235.999C56.7993 236.005 55.0122 237.792 55.0058 239.999L55.0058 287.999C55.0122 290.205 56.7993 291.992 59.0058 291.999L87.0058 291.999 87.0058 297.999 77.0058 297.999 77.0058 303.999 113.006 303.999 113.006 297.999 103.006 297.999 103.006 291.999 131.006 291.999C133.212 291.992 134.999 290.205 135.006 287.999L135.006 239.999C134.999 237.792 133.212 236.005 131.006 235.999ZM87.5058 285.999 61.0058 285.999 61.0058 265.499 87.5058 265.499ZM87.5058 262.499 61.0058 262.499 61.0058 241.999 87.5058 241.999ZM129.006 285.999 90.5058 285.999 90.5058 241.999 129.006 241.999Z"/><path d="M120.006 268.496C120.029 267.625 119.616 266.799 118.906 266.294 117.323 265.055 115.487 264.178 113.528 263.726 112.059 263.285 110.539 263.038 109.006 262.993 107.469 262.997 105.943 263.245 104.484 263.726 102.552 264.255 100.731 265.125 99.1057 266.294 98.4164 266.817 98.0098 267.631 98.0057 268.496L98.0057 273.999 120.006 273.999Z"/><path d="M114.506 256.022C114.506 259.06 112.043 261.522 109.006 261.522 105.968 261.522 103.506 259.06 103.506 256.022 103.506 252.985 105.968 250.522 109.006 250.522 112.043 250.522 114.506 252.985 114.506 256.022Z"/><path d="M81.0058 256.061C81.0199 255.525 80.7661 255.017 80.3288 254.707 79.3547 253.944 78.225 253.404 77.0194 253.126 76.1156 252.855 75.1799 252.703 74.2364 252.675 73.2908 252.678 72.3515 252.83 71.4534 253.126 70.265 253.452 69.1443 253.987 68.1441 254.707 67.7199 255.028 67.4696 255.529 67.4672 256.061L67.4672 259.448 81.0058 259.448Z"/><path d="M77.6221 248.385C77.6221 250.255 76.1063 251.771 74.2365 251.771 72.3667 251.771 70.8509 250.255 70.8509 248.385 70.8509 246.515 72.3667 245 74.2365 245 76.1063 245 77.6221 246.515 77.6221 248.385Z"/><path d="M81.0058 279.612C81.0199 279.076 80.7661 278.568 80.3288 278.258 79.3547 277.495 78.225 276.955 77.0194 276.677 76.1156 276.405 75.1799 276.254 74.2364 276.226 73.2908 276.229 72.3515 276.381 71.4534 276.677 70.265 277.003 69.1443 277.538 68.1441 278.258 67.7198 278.579 67.4696 279.08 67.4672 279.612L67.4672 282.999 81.0058 282.999Z"/><path d="M77.6221 271.936C77.6221 273.806 76.1063 275.322 74.2365 275.322 72.3667 275.322 70.8509 273.806 70.8509 271.936 70.8509 270.066 72.3667 268.551 74.2365 268.551 76.1063 268.551 77.6221 270.066 77.6221 271.936Z"/></g></svg>