<svg width="96" height="96" xmlns="http://www.w3.org/2000/svg" xmlns:xlink="http://www.w3.org/1999/xlink" xml:space="preserve" overflow="hidden"><defs><clipPath id="clip0"><rect x="176" y="266" width="96" height="96"/></clipPath></defs><g clip-path="url(#clip0)" transform="translate(-176 -266)"><path d="M267.288 303.022C267.226 302.125 266.574 301.38 265.693 301.2L255.119 299.041C254.461 298.905 253.78 299.11 253.306 299.586L251.17 301.721 236.97 287.521C236.799 290.431 235.228 293.077 232.756 294.621L245.513 307.378 243.45 309.442C242.981 309.911 242.775 310.581 242.9 311.232L244.945 321.916C245.116 322.809 245.869 323.474 246.776 323.535L257.382 324.242C257.427 324.242 257.472 324.247 257.517 324.247 258.622 324.283 259.546 323.417 259.582 322.312 259.619 321.208 258.753 320.283 257.648 320.247L248.582 319.647 247.027 311.522 255.374 303.175 263.4 304.81 264.006 313.894C264.079 314.997 265.033 315.832 266.136 315.758 267.239 315.685 268.073 314.731 268 313.628Z"/><path d="M218.941 316.941C218.942 313.727 218.023 310.579 216.292 307.87L209.236 316.3C205.585 320.677 199.077 321.265 194.701 317.613 190.324 313.962 189.736 307.455 193.387 303.078 193.784 302.602 194.224 302.162 194.7 301.765L194.96 301.547C188.931 304.298 185.062 310.314 185.06 316.941L185.06 336 218.941 336Z"/><path d="M219 287C219 286.391 219.062 285.784 219.184 285.188L196.623 304.065C193.524 306.661 193.117 311.278 195.713 314.377 198.31 317.476 202.927 317.883 206.025 315.287 206.355 315.011 206.659 314.706 206.935 314.377L223.388 294.714C220.671 293.093 219.005 290.164 219 287ZM203.923 309.906C203.142 310.687 201.876 310.687 201.095 309.906 200.313 309.125 200.313 307.859 201.094 307.078 201.875 306.297 203.141 306.297 203.923 307.078 203.923 307.078 203.923 307.078 203.923 307.078 204.704 307.859 204.704 309.125 203.923 309.906Z"/><path d="M219 340 185 340C182.791 340 181 341.791 181 344L181 348 223 348 223 344C223 341.791 221.209 340 219 340Z"/><path d="M228 281C224.686 281 222 283.686 222 287 222 290.314 224.686 293 228 293 231.314 293 234 290.314 234 287 234 283.686 231.314 281 228 281ZM228 288.5C227.172 288.5 226.5 287.828 226.5 287 226.5 286.172 227.172 285.5 228 285.5 228.828 285.5 229.5 286.172 229.5 287 229.5 287.828 228.828 288.5 228 288.5Z"/></g></svg>