<svg width="96" height="96" xmlns="http://www.w3.org/2000/svg" xmlns:xlink="http://www.w3.org/1999/xlink" xml:space="preserve" overflow="hidden"><defs><clipPath id="clip0"><rect x="933" y="182" width="96" height="96"/></clipPath></defs><g clip-path="url(#clip0)" transform="translate(-933 -182)"><path d="M1005.59 209.585 1000.7 214.474 995.807 209.585 992.979 212.413 997.868 217.302 992.979 222.191 995.807 225.02 1000.7 220.13 1005.59 225.02 1008.41 222.191 1003.52 217.302 1008.41 212.413 1005.59 209.585Z"/><path d="M982.315 221.8C982.657 221.246 983.06 220.733 983.515 220.268L981.384 218.156C980.774 218.776 980.235 219.462 979.775 220.2 979.607 220.465 979.46 220.743 979.333 221.03L982.083 222.23C982.149 222.081 982.227 221.937 982.315 221.8Z"/><path d="M987.952 218.091 987.526 215.122C986.381 215.282 985.268 215.62 984.226 216.122L985.539 218.822C986.301 218.455 987.115 218.208 987.952 218.091Z"/><path d="M979.435 225.17C979.974 226.204 980.68 227.141 981.525 227.944L983.669 225.844C983.059 225.271 982.543 224.604 982.14 223.87Z"/><path d="M993.356 215.578C992.555 215.329 991.73 215.161 990.895 215.078L990.569 218.061C991.188 218.123 991.799 218.243 992.396 218.419Z"/><path d="M988.807 236.6 991.6 235.5C991.19 234.466 990.664 233.482 990.032 232.566L987.553 234.256C988.058 234.988 988.479 235.774 988.807 236.6Z"/><path d="M963.749 249.994C963.797 250.003 964.964 250.194 966.814 250.402L967.141 247.42C965.387 247.228 964.261 247.039 964.25 247.037Z"/><path d="M969.864 250.673C970.901 250.744 971.933 250.793 972.929 250.817L973.001 247.817C972.049 247.795 971.063 247.749 970.07 247.681Z"/><path d="M981.646 247.229 982.219 250.175C983.27 249.974 984.306 249.701 985.319 249.356L984.338 246.521C983.458 246.82 982.559 247.056 981.646 247.229Z"/><path d="M986.741 245.4 988.341 247.938C989.355 247.312 990.241 246.501 990.954 245.547L988.529 243.779C988.041 244.428 987.434 244.978 986.741 245.4Z"/><path d="M989.44 239.115C989.487 239.528 989.511 239.943 989.511 240.359 989.511 240.545 989.511 240.733 989.498 240.924 989.486 241.174 989.458 241.423 989.416 241.67L992.372 242.184C992.435 241.816 992.476 241.445 992.494 241.073 992.506 240.831 992.511 240.594 992.511 240.359 992.511 239.827 992.48 239.296 992.419 238.768Z"/><path d="M985.793 227.874 983.745 230.065C984.411 230.688 985.122 231.365 985.806 232.101L988 230.058C987.253 229.252 986.465 228.5 985.793 227.874Z"/><path d="M975.921 247.813 976.009 250.813C977.092 250.781 978.134 250.713 979.109 250.621L978.816 247.635C977.909 247.723 976.935 247.783 975.921 247.813Z"/><path d="M968.733 223.999 970.733 223.999 970.733 221.632 974.468 221.632 969.734 209.797 965 221.632 968.733 221.632 968.733 223.999Z"/><path d="M1004.11 242.142 1005.71 242.142 1001.86 232.999 998 242.142 999.599 242.142 997 247.571 1000.86 247.571 1000.86 249.999 1002.86 249.999 1002.86 247.571 1006.71 247.571 1004.11 242.142Z"/><path d="M977 240.999 977 242.999 979 242.999 979 240.999 982 240.999 978 230.999 975 238.499 972 230.999 968 240.999 971 240.999 971 242.999 973 242.999 973 240.999 974 240.999 976 240.999 977 240.999Z"/><path d="M1011.45 198 960 198 960 188 950 188C945.584 188.005 942.005 191.584 942 196L942 254C942.005 258.416 945.584 261.995 950 262L1002 262 1002 272 1012 272C1016.42 271.995 1019.99 268.416 1020 264L1020 206C1019.84 201.433 1016.01 197.857 1011.45 198ZM948 196C948 194.895 948.895 194 950 194L954 194 954 246 950 246C949.325 246 948.653 246.085 948 246.253ZM948 254C948 252.895 948.895 252 950 252L960 252 960 204 1011.45 204C1012.69 203.883 1013.81 204.761 1014 206L1014 256 950 256C948.895 256 948 255.105 948 254ZM1014 264C1014 265.105 1013.1 266 1012 266L1008 266 1008 262 1014 262Z"/></g></svg>