<svg width="96" height="96" xmlns="http://www.w3.org/2000/svg" xmlns:xlink="http://www.w3.org/1999/xlink" xml:space="preserve" overflow="hidden"><defs><clipPath id="clip0"><rect x="592" y="312" width="96" height="96"/></clipPath></defs><g clip-path="url(#clip0)" transform="translate(-592 -312)"><path d="M640 322C619 322 602 339 602 360 602 381 619 398 640 398 661 398 678 381 678 360 678 339 661 322 640 322ZM640 388C637.2 388 635 385.8 635 383 635 380.2 637.2 378 640 378 642.8 378 645 380.2 645 383 645 385.8 642.8 388 640 388ZM643 364.8C643 367.4 643 374 643 374L637 374 637 359 640 359C646.7 359 651 355.1 651 349 651 342.7 646.3 338 640 338 633.1 338 629 342.1 629 349L623 349C623 338.8 629.8 332 640 332 649.5 332 657 339.5 657 349 657 357.5 651.4 363.6 643 364.8Z"/></g></svg>