<svg width="96" height="96" xmlns="http://www.w3.org/2000/svg" xmlns:xlink="http://www.w3.org/1999/xlink" xml:space="preserve" overflow="hidden"><defs><clipPath id="clip0"><rect x="592" y="312" width="96" height="96"/></clipPath></defs><g clip-path="url(#clip0)" transform="translate(-592 -312)"><path d="M679.8 320.4C678.4 319 669.4 320.6 661.9 322.6 664.6 324.2 667.4 326.4 670.1 329.1 672.9 331.9 675.1 334.7 676.7 337.5 678.7 329.8 681.3 321.8 679.8 320.4Z"/><path d="M624.1 348.9 620.7 347.6C619.3 347.1 617.8 347.4 616.7 348.4L600.8 364.3C598.2 366.9 600.6 371.4 604.2 370.6L617.5 367.6C618.6 362.6 620.4 355.9 624.1 348.9Z"/><path d="M650.6 375C643.9 378.5 637.5 380.4 632.3 381.4L629.2 395.6C628.4 399.2 632.8 401.7 635.5 399L651.4 383.1C652.4 382.1 652.8 380.5 652.2 379.1L650.6 375Z"/><path d="M656.5 324.4C650.6 326.8 643.9 330.9 637.4 337.4 625.5 349.3 622 363.7 621 371.9L627.2 378.1C635.4 377.1 649.9 373.7 661.8 361.8 668.3 355.3 672.4 348.7 674.8 342.8 673.5 339.5 670.9 335.6 667.2 331.8 663.6 328.3 659.8 325.7 656.5 324.4ZM661.6 346C659.3 348.3 655.5 348.3 653.1 346 650.8 343.7 650.8 339.9 653.1 337.5 655.4 335.2 659.2 335.2 661.6 337.5 663.9 339.9 663.9 343.7 661.6 346Z"/><path d="M620.9 378.2C619.3 376.6 619.5 373.9 616.2 377.2 612.9 380.5 608 388 609.5 389.6 611.1 391.2 618.6 386.2 621.9 382.9 625.2 379.5 622.5 379.7 620.9 378.2Z"/></g></svg>