<?xml version="1.0" encoding="UTF-8" standalone="no"?>
<svg
   xmlns:dc="http://purl.org/dc/elements/1.1/"
   xmlns:cc="http://creativecommons.org/ns#"
   xmlns:rdf="http://www.w3.org/1999/02/22-rdf-syntax-ns#"
   xmlns:svg="http://www.w3.org/2000/svg"
   xmlns="http://www.w3.org/2000/svg"
   xmlns:sodipodi="http://sodipodi.sourceforge.net/DTD/sodipodi-0.dtd"
   xmlns:inkscape="http://www.inkscape.org/namespaces/inkscape"
   sodipodi:docname="upbeat-dhawan.svg"
   inkscape:version="1.0 (4035a4fb49, 2020-05-01)"
   id="svg8"
   version="1.1"
   viewBox="0 0 51.327524 34.605052"
   height="34.605053mm"
   width="51.327522mm">
  <defs
     id="defs2">
    <inkscape:path-effect
       effect="fillet_chamfer"
       id="path-effect896"
       is_visible="true"
       lpeversion="1"
       satellites_param="F,0,0,1,0,2.8642872,0,1 @ F,0,0,1,0,0,0,1 @ F,0,0,1,0,0,0,1 @ F,0,0,1,0,0,0,1 @ F,0,0,1,0,0,0,1 @ F,0,0,1,0,0,0,1 @ F,0,0,1,0,0,0,1 @ F,0,0,1,0,0,0,1"
       unit="px"
       method="auto"
       mode="F"
       radius="4"
       chamfer_steps="1"
       flexible="false"
       use_knot_distance="true"
       apply_no_radius="true"
       apply_with_radius="true"
       only_selected="true"
       hide_knots="false" />
    <clipPath
       id="clipPath925"
       clipPathUnits="userSpaceOnUse">
      <path
         id="path923"
         d="M 0,1080 H 1920 V 0 H 0 Z" />
    </clipPath>
  </defs>
  <sodipodi:namedview
     inkscape:window-maximized="1"
     inkscape:window-y="-8"
     inkscape:window-x="-8"
     inkscape:window-height="992"
     inkscape:window-width="1620"
     inkscape:snap-intersection-paths="true"
     inkscape:snap-smooth-nodes="true"
     showgrid="false"
     inkscape:document-rotation="0"
     inkscape:current-layer="layer1"
     inkscape:document-units="mm"
     inkscape:cy="186.65494"
     inkscape:cx="113.66737"
     inkscape:zoom="2.0000001"
     inkscape:pageshadow="2"
     inkscape:pageopacity="0.0"
     borderopacity="1.0"
     bordercolor="#666666"
     pagecolor="#ffffff"
     id="base"
     inkscape:snap-global="true"
     inkscape:snap-bbox="true" />
  <metadata
     id="metadata5">
    <rdf:RDF>
      <cc:Work
         rdf:about="">
        <dc:format>image/svg+xml</dc:format>
        <dc:type
           rdf:resource="http://purl.org/dc/dcmitype/StillImage" />
        <dc:title />
      </cc:Work>
    </rdf:RDF>
  </metadata>
  <g
     id="layer1"
     inkscape:groupmode="layer"
     inkscape:label="Layer 1"
     transform="translate(9.5163909,-77.925604)">
    <rect
       style="fill:#ffffff;fill-opacity:1;stroke:#48ace1;stroke-width:0.418751;stroke-miterlimit:4;stroke-dasharray:none;stroke-opacity:1"
       id="rect1603"
       width="50.908772"
       height="34.186302"
       x="-9.3070154"
       y="78.134979"
       ry="0.95283085" />
    <g
       id="g1589"
       transform="matrix(0.13882265,0,0,0.14048417,-1.2068404,78.608401)">
      <g
         transform="matrix(0.35277777,0,0,-0.35277777,-504.30019,310.4717)"
         id="g919">
        <g
           id="g921"
           clip-path="url(#clipPath925)">
          <g
             id="g927"
             transform="translate(1387.7972,431.8915)">
            <path
               d="m 0,0 c -12.739,12.521 -19.73,29.755 -19.314,47.613 l 2.439,200.463 c -0.138,17.84 7.118,34.94 20.044,47.236 12.387,12.402 29.351,19.129 46.871,18.585 l 199.681,-1.645 c 17.863,0.121 34.979,-7.153 47.289,-20.096 12.384,-12.373 19.093,-29.322 18.532,-46.819 L 313.897,45.656 C 314.132,28.138 307.108,11.305 294.491,-0.85 282.01,-13.585 264.809,-20.578 246.983,-20.165 L 46.507,-19.302 C 29.003,-19.573 12.167,-12.586 0,0"
               style="fill:#48ace1;fill-opacity:1;fill-rule:nonzero;stroke:none"
               id="path929" />
          </g>
          <g
             id="g931"
             transform="translate(1507.9819,692.5367)">
            <path
               d="m 0,0 -92.6,-77.497 c -1.465,-1.226 -3.132,-2.515 -4.999,-3.852 -1.811,-1.318 -3.527,-2.759 -5.138,-4.315 -1.528,-1.462 -2.889,-3.089 -4.058,-4.851 -1.157,-1.783 -1.844,-3.829 -2,-5.949 -0.214,-2.145 0.099,-4.309 0.91,-6.306 0.815,-1.986 1.866,-3.868 3.129,-5.604 1.311,-1.815 2.747,-3.537 4.297,-5.153 1.607,-1.646 3.02,-3.209 4.239,-4.69 l 77.481,-92.599 c 2.478,-3.014 6.09,-4.872 9.984,-5.135 3.815,-0.371 7.614,0.853 10.495,3.38 l 35.488,29.604 c -1.242,1.029 -2.388,2.17 -3.422,3.409 l -47.511,57.176 c -4.304,5.006 -6.352,11.566 -5.659,18.132 0.372,6.381 3.407,12.312 8.364,16.347 4.967,4.035 9.938,8.135 14.916,12.3 l 42.363,35.447 c 1.278,1.093 2.655,2.065 4.114,2.902 L 20.565,-1.714 C 18.174,1.283 14.651,3.157 10.83,3.465 6.894,3.874 2.967,2.618 0,0"
               style="fill:#ffffff;fill-opacity:1;fill-rule:nonzero;stroke:none"
               id="path933" />
          </g>
          <g
             id="g935"
             transform="translate(1541.4479,702.9069)">
            <path
               d="m 0,0 c 9.129,0.418 18.023,-2.958 24.576,-9.328 l 76.281,-70.845 c 6.917,-6.234 10.948,-15.052 11.135,-24.363 0.416,-9.117 -2.961,-17.999 -9.329,-24.537 l -70.845,-76.281 c -6.069,-6.825 -14.692,-10.834 -23.823,-11.076 -9.281,-0.513 -18.361,2.843 -25.077,9.27 l -76.862,70.824 c -6.833,6.05 -10.856,14.659 -11.114,23.782 -0.5,9.299 2.869,18.39 9.308,25.118 l 71.426,76.302 C -18.105,-4.219 -9.299,-0.188 0,0"
               style="fill:#48ace1;fill-opacity:1;fill-rule:nonzero;stroke:none"
               id="path937" />
          </g>
          <g
             id="g939"
             transform="translate(1565.4761,702.9069)">
            <path
               d="m 0,0 c 9.129,0.418 18.023,-2.958 24.576,-9.328 l 76.281,-70.845 c 6.917,-6.234 10.948,-15.052 11.135,-24.363 0.416,-9.117 -2.961,-17.999 -9.329,-24.537 l -70.845,-76.281 c -6.069,-6.825 -14.692,-10.834 -23.823,-11.076 -9.281,-0.513 -18.361,2.843 -25.077,9.27 l -76.862,70.824 c -6.833,6.05 -10.856,14.659 -11.114,23.782 -0.5,9.299 2.869,18.39 9.308,25.118 l 71.426,76.302 C -18.105,-4.219 -9.299,-0.188 0,0"
               style="fill:#ffffff;fill-opacity:1;fill-rule:nonzero;stroke:none"
               id="path941" />
          </g>
          <g
             id="g943"
             transform="translate(1579.813,512.2006)">
            <path
               d="m 0,0 66.6,66.613 c 1.054,1.054 2.26,2.171 3.619,3.339 1.315,1.148 2.55,2.387 3.694,3.707 1.086,1.242 2.031,2.6 2.818,4.05 0.776,1.465 1.169,3.103 1.143,4.761 0.018,1.681 -0.374,3.341 -1.143,4.837 -0.77,1.487 -1.716,2.877 -2.818,4.138 -1.144,1.32 -2.379,2.559 -3.694,3.707 -1.363,1.168 -2.569,2.285 -3.619,3.352 L 0,165.104 c -2.134,2.171 -5.069,3.366 -8.112,3.301 -2.991,0.024 -5.858,-1.189 -7.922,-3.352 l -25.531,-25.454 c 1.037,-0.714 2.006,-1.521 2.895,-2.412 L 2.196,96.041 C 5.887,92.448 7.931,87.492 7.846,82.343 7.998,77.359 6.049,72.54 2.476,69.063 -1.105,65.585 -4.685,62.055 -8.265,58.475 L -38.734,28.006 c -0.917,-0.938 -1.92,-1.788 -2.996,-2.539 l 25.632,-25.556 c 2.065,-2.163 4.932,-3.376 7.922,-3.351 C -5.09,-3.486 -2.125,-2.239 0,0"
               style="fill:#48ace1;fill-opacity:1;fill-rule:nonzero;stroke:none"
               id="path945" />
          </g>
        </g>
      </g>
      <text
         y="183.97722"
         x="-39.760189"
         transform="scale(0.99971987,1.0002802)"
         style="font-variant:normal;font-weight:bold;font-stretch:normal;font-size:18.3199px;font-family:'Segoe UI';-inkscape-font-specification:SegoeUI-Bold;writing-mode:lr-tb;fill:#48ace1;fill-opacity:1;fill-rule:nonzero;stroke:none;stroke-width:0.352679"
         id="text949"><tspan
           style="stroke-width:0.352679"
           x="-39.760189 -26.881315 -13.636061 -2.9006195 10.985855 28.517975 41.396843 52.132294 57.93969 71.826149"
           y="183.97722"
           sodipodi:role="line"
           id="tspan947">AUTOMATION</tspan></text>
      <text
         y="183.92227"
         x="89.79792"
         transform="scale(0.99971987,1.0002802)"
         style="font-variant:normal;font-weight:normal;font-stretch:normal;font-size:18.3199px;font-family:'Segoe UI';-inkscape-font-specification:SegoeUI;writing-mode:lr-tb;fill:#48ace1;fill-opacity:1;fill-rule:nonzero;stroke:none;stroke-width:0.352679"
         id="text953"><tspan
           style="stroke-width:0.352679"
           x="89.79792 100.42345 105.25988"
           y="183.92227"
           sodipodi:role="line"
           id="tspan951">KIT</tspan></text>
    </g>
    <text
       xml:space="preserve"
       style="font-style:normal;font-weight:normal;font-size:2.82222px;line-height:1.25;font-family:sans-serif;fill:#000000;fill-opacity:1;stroke:none;stroke-width:0.0865003"
       x="25.926992"
       y="108.73418"
       id="text1597"
       transform="scale(1.0231312,0.97739176)"><tspan
         sodipodi:role="line"
         x="25.926992"
         y="108.73418"
         style="font-style:normal;font-variant:normal;font-weight:normal;font-stretch:normal;font-size:2.82222px;font-family:'Segoe UI';-inkscape-font-specification:'Segoe UI';text-align:center;text-anchor:middle;stroke-width:0.0865003"
         id="tspan1599">Upbeat</tspan><tspan
         id="tspan4323"
         sodipodi:role="line"
         x="25.926992"
         y="112.29462"
         style="font-style:normal;font-variant:normal;font-weight:normal;font-stretch:normal;font-size:2.82222px;font-family:'Segoe UI';-inkscape-font-specification:'Segoe UI';text-align:center;text-anchor:middle;stroke-width:0.0865003">Dhawan</tspan></text>
    <g
       id="g3009"
       transform="matrix(0.58165635,0,0,0.56570299,16.657238,46.188809)">
      <path
         id="path1681"
         style="fill:#7b3838;fill-opacity:1;fill-rule:nonzero;stroke:none;stroke-width:0.352777"
         d="m 28.8589,95.240929 c -1.93181,0 -3.486149,-1.5547 -3.486149,-3.48651 V 69.012604 H 28.8589 c 1.930754,0 3.486504,1.554339 3.486504,3.486503 v 22.741822 z" />
      <path
         id="path1683"
         style="fill:#4d2525;fill-opacity:1;fill-rule:nonzero;stroke:none;stroke-width:0.352777"
         d="m 29.844208,67.122068 c 0,1.58997 -0.632529,3.116792 -1.756832,4.241447 -1.125714,1.125714 -2.651478,1.758245 -4.242858,1.758245 -1.591733,0 -3.118555,-0.632531 -4.243211,-1.758245 -1.125714,-1.124655 -1.758244,-2.651477 -1.758244,-4.241447 0,-3.314347 2.687108,-6.001455 6.001455,-6.001455 1.59138,0 3.117144,0.632531 4.242858,1.758244 1.124303,1.124656 1.756832,2.651478 1.756832,4.243211 z" />
      <path
         id="path1685"
         style="fill:#eba268;fill-opacity:1;fill-rule:nonzero;stroke:none;stroke-width:0.352777"
         d="m 33.418909,81.85301 c 0,2.555169 -2.071158,4.624919 -4.624567,4.624919 -2.553405,0 -4.624916,-2.06975 -4.624916,-4.624919 0,-2.553406 2.071511,-4.623153 4.624916,-4.623153 2.553409,0 4.624567,2.069747 4.624567,4.623153 z" />
      <path
         id="path1687"
         style="fill:#cf776a;fill-opacity:1;fill-rule:nonzero;stroke:none;stroke-width:0.352777"
         d="m 31.189353,81.85301 c 0,1.322916 -1.072095,2.395009 -2.395011,2.395009 -1.322916,0 -2.395008,-1.072093 -2.395008,-2.395009 0,-1.322917 1.072092,-2.395009 2.395008,-2.395009 1.322916,0 2.395011,1.072092 2.395011,2.395009 z" />
      <path
         id="path1689"
         style="fill:#eba268;fill-opacity:1;fill-rule:nonzero;stroke:none;stroke-width:0.352777"
         d="m 11.053502,81.85301 c 0,2.555169 -2.0711585,4.624919 -4.6249168,4.624919 -2.5534054,0 -4.6245637,-2.06975 -4.6245637,-4.624919 0,-2.553406 2.0711583,-4.623153 4.6245637,-4.623153 2.5537583,0 4.6249168,2.069747 4.6249168,4.623153 z" />
      <path
         id="path1691"
         style="fill:#cf776a;fill-opacity:1;fill-rule:nonzero;stroke:none;stroke-width:0.352777"
         d="m 8.8235935,81.85301 c 0,1.322916 -1.0720916,2.395009 -2.3950083,2.395009 -1.3229167,0 -2.3950082,-1.072093 -2.3950082,-2.395009 0,-1.322917 1.0720915,-2.395009 2.3950082,-2.395009 1.3229167,0 2.3950083,1.072092 2.3950083,2.395009 z" />
      <path
         id="path1693"
         style="fill:#eba268;fill-opacity:1;fill-rule:nonzero;stroke:none;stroke-width:0.352777"
         d="m 12.262119,67.766946 c -3.2977671,0 -5.9531255,2.655358 -5.9531255,5.954536 v 13.448237 c 0,6.241 5.0598915,11.30265 11.3026475,11.30265 6.242402,0 11.302647,-5.06024 11.302647,-11.30265 V 73.721482 c 0,-3.299178 -2.655712,-5.954536 -5.953126,-5.954536 z" />
      <path
         id="path1695"
         style="fill:#1a1a1a;fill-opacity:1;fill-rule:nonzero;stroke:none;stroke-width:0.352777"
         d="m 15.09951,79.685543 c 0,1.078794 -0.87383,1.952625 -1.952978,1.952625 -1.078794,0 -1.954036,-0.873831 -1.954036,-1.952625 0,-1.079147 0.875242,-1.954036 1.954036,-1.954036 1.079148,0 1.952978,0.874889 1.952978,1.954036 z" />
      <path
         id="path1697"
         style="fill:#1a1a1a;fill-opacity:1;fill-rule:nonzero;stroke:none;stroke-width:0.352777"
         d="m 24.030432,79.685543 c 0,1.078794 -0.875242,1.952625 -1.954036,1.952625 -1.079147,0 -1.952625,-0.873831 -1.952625,-1.952625 0,-1.079147 0.873478,-1.954036 1.952625,-1.954036 1.078794,0 1.954036,0.874889 1.954036,1.954036 z" />
      <path
         id="path1699"
         style="fill:#cf776a;fill-opacity:1;fill-rule:nonzero;stroke:none;stroke-width:0.352777"
         d="m 17.611641,79.267854 c 0.927452,0 1.674283,0.746831 1.674283,1.675694 v 4.278841 c 0,0.92745 -0.746831,1.67428 -1.674283,1.67428 -0.927453,0 -1.674284,-0.74683 -1.674284,-1.67428 v -4.278841 c 0,-0.928863 0.746831,-1.675694 1.674284,-1.675694 z" />
      <path
         id="path1701"
         style="fill:#7b3838;fill-opacity:1;fill-rule:nonzero;stroke:none;stroke-width:0.352777"
         d="m 11.739655,75.733374 h 2.814108 c 0.29598,0 0.534458,0.238125 0.534458,0.534458 0,0.296333 -0.238478,0.534811 -0.534458,0.534811 h -2.814108 c -0.297745,0 -0.53587,-0.238478 -0.53587,-0.534811 0,-0.296333 0.238125,-0.534458 0.53587,-0.534458 z" />
      <path
         id="path1703"
         style="fill:#7b3838;fill-opacity:1;fill-rule:nonzero;stroke:none;stroke-width:0.352777"
         d="m 20.669518,75.733374 h 2.813755 c 0.296334,0 0.536223,0.238125 0.536223,0.534458 0,0.296333 -0.239889,0.534811 -0.536223,0.534811 h -2.813755 c -0.296333,0 -0.534811,-0.238478 -0.534811,-0.534811 0,-0.296333 0.238478,-0.534458 0.534811,-0.534458 z" />
      <path
         id="path1705"
         style="fill:#7b3838;fill-opacity:1;fill-rule:nonzero;stroke:none;stroke-width:0.352777"
         d="M 5.4503325,74.714904 H 29.772596 c 0,-6.716536 -5.44442,-12.162719 -12.160955,-12.162719 -6.716536,0 -12.1613085,5.446183 -12.1613085,12.162719 z" />
      <path
         id="path1707"
         style="fill:#f8286a;fill-opacity:1;fill-rule:nonzero;stroke:none;stroke-width:0.352777"
         d="m 15.24803,89.582369 c -1.414992,0 -2.56152,1.14653 -2.56152,2.56187 1.794228,0.85302 3.49885,1.01142 5.059892,0.0399 1.5875,0.22613 3.158772,0.90981 4.790369,-0.0399 0,-1.41534 -1.146528,-2.56187 -2.561872,-2.56187 -1.063978,0 -1.976261,0.6477 -2.363258,1.56986 -0.38735,-0.92216 -1.299634,-1.56986 -2.363611,-1.56986 z" />
      <path
         id="path1709"
         style="fill:#c42658;fill-opacity:1;fill-rule:nonzero;stroke:none;stroke-width:0.352777"
         d="m 12.68651,92.144239 c 0.996245,1.68275 2.828925,2.80988 4.925131,2.80988 2.095852,0 3.928532,-1.12713 4.92513,-2.80988 z" />
      <path
         id="path1711"
         style="fill:#a44a4a;fill-opacity:1;fill-rule:nonzero;stroke:none;stroke-width:0.352777"
         d="m 15.762027,64.72953 c -0.03986,0.0014 -0.08114,0.0071 -0.121003,0.01517 -2.823633,0.559506 -5.228519,2.277886 -6.7003081,4.641145 -0.2106084,0.337961 -0.1058334,0.782813 0.231775,0.993775 0.3376083,0.20955 0.782461,0.106186 0.9934221,-0.231423 1.26365,-2.029883 3.330928,-3.508727 5.754864,-3.988152 0.881944,-0.16122 0.736953,-1.466145 -0.15875,-1.430515 z" />
      <path
         id="path1713"
         style="fill:#4d2525;fill-opacity:1;fill-rule:nonzero;stroke:none;stroke-width:0.352777"
         d="m 21.146121,87.796609 c 0,0.33479 -0.269875,0.60501 -0.605014,0.60501 -0.333375,0 -0.605014,-0.27022 -0.605014,-0.60501 0,-0.33337 0.271639,-0.60501 0.605014,-0.60501 0.335139,0 0.605014,0.27164 0.605014,0.60501 z" />
      <path
         id="path1715"
         style="fill:#fed883;fill-opacity:1;fill-rule:nonzero;stroke:none;stroke-width:0.352777"
         d="m 5.8348602,86.295889 c 0,0.66287 -0.5376333,1.20015 -1.2005027,1.20015 -0.6639277,0 -1.2015611,-0.53728 -1.2015611,-1.20015 0,-0.66287 0.5376334,-1.20015 1.2015611,-1.20015 0.6628694,0 1.2005027,0.53728 1.2005027,1.20015 z" />
      <path
         id="path1717"
         style="fill:#fed883;fill-opacity:1;fill-rule:nonzero;stroke:none;stroke-width:0.352777"
         d="m 31.790134,86.295889 c 0,0.66287 -0.537281,1.20015 -1.201563,1.20015 -0.662871,0 -1.200504,-0.53728 -1.200504,-1.20015 0,-0.66287 0.537633,-1.20015 1.200504,-1.20015 0.664282,0 1.201563,0.53728 1.201563,1.20015 z" />
    </g>
  </g>
</svg>
