<?xml version="1.0" encoding="UTF-8" standalone="no"?>
<svg
   xmlns:dc="http://purl.org/dc/elements/1.1/"
   xmlns:cc="http://creativecommons.org/ns#"
   xmlns:rdf="http://www.w3.org/1999/02/22-rdf-syntax-ns#"
   xmlns:svg="http://www.w3.org/2000/svg"
   xmlns="http://www.w3.org/2000/svg"
   xmlns:sodipodi="http://sodipodi.sourceforge.net/DTD/sodipodi-0.dtd"
   xmlns:inkscape="http://www.inkscape.org/namespaces/inkscape"
   sodipodi:docname="vibrant-elion.svg"
   inkscape:version="1.0 (4035a4fb49, 2020-05-01)"
   id="svg8"
   version="1.1"
   viewBox="0 0 51.327524 34.605052"
   height="34.605053mm"
   width="51.327522mm">
  <defs
     id="defs2">
    <inkscape:path-effect
       effect="fillet_chamfer"
       id="path-effect896"
       is_visible="true"
       lpeversion="1"
       satellites_param="F,0,0,1,0,2.8642872,0,1 @ F,0,0,1,0,0,0,1 @ F,0,0,1,0,0,0,1 @ F,0,0,1,0,0,0,1 @ F,0,0,1,0,0,0,1 @ F,0,0,1,0,0,0,1 @ F,0,0,1,0,0,0,1 @ F,0,0,1,0,0,0,1"
       unit="px"
       method="auto"
       mode="F"
       radius="4"
       chamfer_steps="1"
       flexible="false"
       use_knot_distance="true"
       apply_no_radius="true"
       apply_with_radius="true"
       only_selected="true"
       hide_knots="false" />
    <clipPath
       id="clipPath925"
       clipPathUnits="userSpaceOnUse">
      <path
         id="path923"
         d="M 0,1080 H 1920 V 0 H 0 Z" />
    </clipPath>
  </defs>
  <sodipodi:namedview
     inkscape:window-maximized="1"
     inkscape:window-y="-8"
     inkscape:window-x="-8"
     inkscape:window-height="992"
     inkscape:window-width="1620"
     inkscape:snap-intersection-paths="true"
     inkscape:snap-smooth-nodes="true"
     showgrid="false"
     inkscape:document-rotation="0"
     inkscape:current-layer="layer1"
     inkscape:document-units="mm"
     inkscape:cy="156.18343"
     inkscape:cx="236.2055"
     inkscape:zoom="2.0000001"
     inkscape:pageshadow="2"
     inkscape:pageopacity="0.0"
     borderopacity="1.0"
     bordercolor="#666666"
     pagecolor="#ffffff"
     id="base"
     inkscape:snap-global="true"
     inkscape:snap-bbox="true" />
  <metadata
     id="metadata5">
    <rdf:RDF>
      <cc:Work
         rdf:about="">
        <dc:format>image/svg+xml</dc:format>
        <dc:type
           rdf:resource="http://purl.org/dc/dcmitype/StillImage" />
        <dc:title />
      </cc:Work>
    </rdf:RDF>
  </metadata>
  <g
     id="layer1"
     inkscape:groupmode="layer"
     inkscape:label="Layer 1"
     transform="translate(9.5163909,-77.925604)">
    <rect
       style="fill:#ffffff;fill-opacity:1;stroke:#48ace1;stroke-width:0.418751;stroke-miterlimit:4;stroke-dasharray:none;stroke-opacity:1"
       id="rect1603"
       width="50.908772"
       height="34.186302"
       x="-9.3070154"
       y="78.134979"
       ry="0.95283085" />
    <g
       transform="matrix(0.92696804,0,0,0.84906505,2.3961591,11.903055)"
       id="g3704">
      <path
         d="m 25.553465,81.491593 c -3.099329,0 -5.556857,2.189518 -5.594416,4.909043 l -0.08418,6.085731 H 36.96908 l 0.08418,-6.085731 c 0.03755,-2.719525 -2.495781,-4.909043 -5.595107,-4.909043 z"
         style="fill:#552200;stroke:none;stroke-width:0.487479"
         id="path886" />
      <g
         transform="matrix(0.33449268,0,0,0.31953909,-6.3380772,53.030077)"
         id="g881">
        <g
           id="g867">
          <circle
             r="7.8577237"
             cy="123.66561"
             cx="81.570663"
             id="path861"
             style="fill:#ffb380;fill-opacity:1;stroke-width:1.329" />
          <circle
             r="5.5191154"
             style="fill:#ff9955;fill-opacity:1;stroke-width:0.933465"
             id="circle863"
             cx="81.664207"
             cy="123.75916" />
        </g>
        <g
           id="g873"
           transform="translate(43.591659,0.18708866)">
          <circle
             style="fill:#ffb380;fill-opacity:1;stroke-width:1.329"
             id="circle869"
             cx="81.570663"
             cy="123.66561"
             r="7.8577237" />
          <circle
             cy="123.75916"
             cx="81.664207"
             id="circle871"
             style="fill:#ff9955;fill-opacity:1;stroke-width:0.933465"
             r="5.5191154" />
        </g>
      </g>
      <path
         sodipodi:nodetypes="sssssssss"
         d="m 25.975595,82.448117 h 5.044568 c 2.647599,0 4.811145,2.036361 4.779066,4.565417 l -0.18774,14.798846 c -0.03207,2.52905 -2.131467,4.56541 -4.779066,4.56541 h -5.044568 c -2.647602,0 -4.811149,-2.03636 -4.779064,-4.56541 L 21.19653,87.013534 c 0.03208,-2.529056 2.131463,-4.565417 4.779065,-4.565417 z"
         style="fill:#ffb380;stroke:none;stroke-width:0.434491"
         id="rect833" />
      <ellipse
         cy="90.386307"
         cx="31.287315"
         id="circle839"
         style="fill:#280b0b;stroke:none;stroke-width:0.286339"
         rx="1.6515354"
         ry="1.4880297" />
      <ellipse
         ry="1.4880297"
         rx="1.6515354"
         style="fill:#280b0b;stroke:none;stroke-width:0.286339"
         id="circle839-6"
         cx="25.076979"
         cy="90.393913" />
      <rect
         style="fill:#ff9955;stroke:none;stroke-width:0.330022"
         id="rect856"
         width="2.8160911"
         height="5.6793041"
         x="26.954344"
         y="91.41021"
         ry="1.2450782" />
      <g
         transform="matrix(0.33449268,0,0,0.31953909,-6.087758,52.850731)"
         id="g854">
        <path
           id="path858"
           style="fill:#c83737;stroke:none;stroke-width:1.329"
           d="m 94.105795,149.67093 a 8.9802551,8.9802551 0 0 0 8.979815,8.98033 8.9802551,8.9802551 0 0 0 8.98033,-8.98033 z" />
        <rect
           style="fill:#ffffff;stroke-width:1.15675"
           id="rect850"
           width="18.14743"
           height="4.6772151"
           x="93.91851"
           y="144.99371"
           ry="0" />
      </g>
    </g>
    <g
       id="g1589"
       transform="matrix(0.13882265,0,0,0.14048417,-1.2068404,78.608401)">
      <g
         transform="matrix(0.35277777,0,0,-0.35277777,-504.30019,310.4717)"
         id="g919">
        <g
           id="g921"
           clip-path="url(#clipPath925)">
          <g
             id="g927"
             transform="translate(1387.7972,431.8915)">
            <path
               d="m 0,0 c -12.739,12.521 -19.73,29.755 -19.314,47.613 l 2.439,200.463 c -0.138,17.84 7.118,34.94 20.044,47.236 12.387,12.402 29.351,19.129 46.871,18.585 l 199.681,-1.645 c 17.863,0.121 34.979,-7.153 47.289,-20.096 12.384,-12.373 19.093,-29.322 18.532,-46.819 L 313.897,45.656 C 314.132,28.138 307.108,11.305 294.491,-0.85 282.01,-13.585 264.809,-20.578 246.983,-20.165 L 46.507,-19.302 C 29.003,-19.573 12.167,-12.586 0,0"
               style="fill:#48ace1;fill-opacity:1;fill-rule:nonzero;stroke:none"
               id="path929" />
          </g>
          <g
             id="g931"
             transform="translate(1507.9819,692.5367)">
            <path
               d="m 0,0 -92.6,-77.497 c -1.465,-1.226 -3.132,-2.515 -4.999,-3.852 -1.811,-1.318 -3.527,-2.759 -5.138,-4.315 -1.528,-1.462 -2.889,-3.089 -4.058,-4.851 -1.157,-1.783 -1.844,-3.829 -2,-5.949 -0.214,-2.145 0.099,-4.309 0.91,-6.306 0.815,-1.986 1.866,-3.868 3.129,-5.604 1.311,-1.815 2.747,-3.537 4.297,-5.153 1.607,-1.646 3.02,-3.209 4.239,-4.69 l 77.481,-92.599 c 2.478,-3.014 6.09,-4.872 9.984,-5.135 3.815,-0.371 7.614,0.853 10.495,3.38 l 35.488,29.604 c -1.242,1.029 -2.388,2.17 -3.422,3.409 l -47.511,57.176 c -4.304,5.006 -6.352,11.566 -5.659,18.132 0.372,6.381 3.407,12.312 8.364,16.347 4.967,4.035 9.938,8.135 14.916,12.3 l 42.363,35.447 c 1.278,1.093 2.655,2.065 4.114,2.902 L 20.565,-1.714 C 18.174,1.283 14.651,3.157 10.83,3.465 6.894,3.874 2.967,2.618 0,0"
               style="fill:#ffffff;fill-opacity:1;fill-rule:nonzero;stroke:none"
               id="path933" />
          </g>
          <g
             id="g935"
             transform="translate(1541.4479,702.9069)">
            <path
               d="m 0,0 c 9.129,0.418 18.023,-2.958 24.576,-9.328 l 76.281,-70.845 c 6.917,-6.234 10.948,-15.052 11.135,-24.363 0.416,-9.117 -2.961,-17.999 -9.329,-24.537 l -70.845,-76.281 c -6.069,-6.825 -14.692,-10.834 -23.823,-11.076 -9.281,-0.513 -18.361,2.843 -25.077,9.27 l -76.862,70.824 c -6.833,6.05 -10.856,14.659 -11.114,23.782 -0.5,9.299 2.869,18.39 9.308,25.118 l 71.426,76.302 C -18.105,-4.219 -9.299,-0.188 0,0"
               style="fill:#48ace1;fill-opacity:1;fill-rule:nonzero;stroke:none"
               id="path937" />
          </g>
          <g
             id="g939"
             transform="translate(1565.4761,702.9069)">
            <path
               d="m 0,0 c 9.129,0.418 18.023,-2.958 24.576,-9.328 l 76.281,-70.845 c 6.917,-6.234 10.948,-15.052 11.135,-24.363 0.416,-9.117 -2.961,-17.999 -9.329,-24.537 l -70.845,-76.281 c -6.069,-6.825 -14.692,-10.834 -23.823,-11.076 -9.281,-0.513 -18.361,2.843 -25.077,9.27 l -76.862,70.824 c -6.833,6.05 -10.856,14.659 -11.114,23.782 -0.5,9.299 2.869,18.39 9.308,25.118 l 71.426,76.302 C -18.105,-4.219 -9.299,-0.188 0,0"
               style="fill:#ffffff;fill-opacity:1;fill-rule:nonzero;stroke:none"
               id="path941" />
          </g>
          <g
             id="g943"
             transform="translate(1579.813,512.2006)">
            <path
               d="m 0,0 66.6,66.613 c 1.054,1.054 2.26,2.171 3.619,3.339 1.315,1.148 2.55,2.387 3.694,3.707 1.086,1.242 2.031,2.6 2.818,4.05 0.776,1.465 1.169,3.103 1.143,4.761 0.018,1.681 -0.374,3.341 -1.143,4.837 -0.77,1.487 -1.716,2.877 -2.818,4.138 -1.144,1.32 -2.379,2.559 -3.694,3.707 -1.363,1.168 -2.569,2.285 -3.619,3.352 L 0,165.104 c -2.134,2.171 -5.069,3.366 -8.112,3.301 -2.991,0.024 -5.858,-1.189 -7.922,-3.352 l -25.531,-25.454 c 1.037,-0.714 2.006,-1.521 2.895,-2.412 L 2.196,96.041 C 5.887,92.448 7.931,87.492 7.846,82.343 7.998,77.359 6.049,72.54 2.476,69.063 -1.105,65.585 -4.685,62.055 -8.265,58.475 L -38.734,28.006 c -0.917,-0.938 -1.92,-1.788 -2.996,-2.539 l 25.632,-25.556 c 2.065,-2.163 4.932,-3.376 7.922,-3.351 C -5.09,-3.486 -2.125,-2.239 0,0"
               style="fill:#48ace1;fill-opacity:1;fill-rule:nonzero;stroke:none"
               id="path945" />
          </g>
        </g>
      </g>
      <text
         y="183.97722"
         x="-39.760189"
         transform="scale(0.99971987,1.0002802)"
         style="font-variant:normal;font-weight:bold;font-stretch:normal;font-size:18.3199px;font-family:'Segoe UI';-inkscape-font-specification:SegoeUI-Bold;writing-mode:lr-tb;fill:#48ace1;fill-opacity:1;fill-rule:nonzero;stroke:none;stroke-width:0.352679"
         id="text949"><tspan
           style="stroke-width:0.352679"
           x="-39.760189 -26.881315 -13.636061 -2.9006195 10.985855 28.517975 41.396843 52.132294 57.93969 71.826149"
           y="183.97722"
           sodipodi:role="line"
           id="tspan947">AUTOMATION</tspan></text>
      <text
         y="183.92227"
         x="89.79792"
         transform="scale(0.99971987,1.0002802)"
         style="font-variant:normal;font-weight:normal;font-stretch:normal;font-size:18.3199px;font-family:'Segoe UI';-inkscape-font-specification:SegoeUI;writing-mode:lr-tb;fill:#48ace1;fill-opacity:1;fill-rule:nonzero;stroke:none;stroke-width:0.352679"
         id="text953"><tspan
           style="stroke-width:0.352679"
           x="89.79792 100.42345 105.25988"
           y="183.92227"
           sodipodi:role="line"
           id="tspan951">KIT</tspan></text>
    </g>
    <text
       xml:space="preserve"
       style="font-style:normal;font-weight:normal;font-size:2.82222px;line-height:1.25;font-family:sans-serif;fill:#000000;fill-opacity:1;stroke:none;stroke-width:0.0865003"
       x="28.05481"
       y="108.87035"
       id="text1597"
       transform="scale(1.0231312,0.97739176)"><tspan
         sodipodi:role="line"
         x="28.05481"
         y="108.87035"
         style="font-style:normal;font-variant:normal;font-weight:normal;font-stretch:normal;font-size:2.82222px;font-family:'Segoe UI';-inkscape-font-specification:'Segoe UI';text-align:center;text-anchor:middle;stroke-width:0.0865003"
         id="tspan1599">Vibrant </tspan><tspan
         id="tspan4321"
         sodipodi:role="line"
         x="28.05481"
         y="112.4308"
         style="font-style:normal;font-variant:normal;font-weight:normal;font-stretch:normal;font-size:2.82222px;font-family:'Segoe UI';-inkscape-font-specification:'Segoe UI';text-align:center;text-anchor:middle;stroke-width:0.0865003">Elion</tspan></text>
  </g>
</svg>
