<svg xmlns="http://www.w3.org/2000/svg" viewBox="0 0 2048 2048">
  <path d="M1654 1762q-94 46-185 92t-186 93l-138-276-249 249V587q233 231 461 461t461 462h-290l126 252zm-334-380h190l-486-486v715l156-156 161 321 141-71-162-323zm-104-870q-26 0-45-19t-19-45q0-26 19-45l128-128q19-19 45-19t45 19 19 45q0 26-19 45l-128 128q-19 19-45 19zM640 704q0 26-19 45t-45 19H384q-26 0-45-19t-19-45q0-26 19-45t45-19h192q26 0 45 19t19 45zm0-256q-26 0-45-19L467 301q-19-19-19-45t19-45 45-19q26 0 45 19l128 128q19 19 19 45t-19 45-45 19zm-128 640q0-26 19-45l128-128q19-19 45-19t45 19 19 45q0 26-19 45l-128 128q-19 19-45 19t-45-19-19-45zm448-704q-26 0-45-19t-19-45V128q0-26 19-45t45-19q26 0 45 19t19 45v192q0 26-19 45t-45 19z" />
</svg>