<svg xmlns="http://www.w3.org/2000/svg" viewBox="0 0 2048 2048">
  <path d="M960 704q53 0 99 20t82 55 55 81 20 100q0 53-20 99t-55 82-81 55-100 20q-53 0-99-20t-82-55-55-81-20-100q0-53 20-99t55-82 81-55 100-20zm960 320h-195q-7 92-35 178t-76 162-111 139-138 110-162 76-179 36v195H896v-195q-92-7-178-35t-162-76-139-111-110-138-76-162-36-179H0V896h195q7-92 35-178t76-162 111-139 138-110 162-76 179-36V0h128v195q93 7 179 35t161 76 139 111 110 138 76 162 36 179h195v128zm-960 576q88 0 170-23t153-64 129-100 100-130 65-153 23-170q0-88-23-170t-64-153-100-129-130-100-153-65-170-23q-88 0-170 23t-153 64-129 100-100 130-65 153-23 170q0 88 23 170t64 153 100 129 130 100 153 65 170 23z" />
</svg>