<svg width="105" height="98" xmlns="http://www.w3.org/2000/svg" xmlns:xlink="http://www.w3.org/1999/xlink" xml:space="preserve" overflow="hidden"><defs><clipPath id="clip0"><rect x="128" y="1935" width="105" height="98"/></clipPath></defs><g clip-path="url(#clip0)" transform="translate(-128 -1935)"><path d="M194.697 2016.57C191.421 2019.85 186.062 2021.95 181.893 2023.14 181.893 2023.14 181.893 2023.14 181.893 2033 181.893 2033 181.893 2033 164.028 2033 164.028 2033 164.028 2033 164.028 2021.95 156.584 2020.75 150.331 2016.57 144.972 2010.89 144.972 2010.89 144.972 2010.89 136.337 2015.37 136.337 2015.37 136.337 2015.37 128 1998.94 128 1998.94 128 1998.94 136.337 1994.46 135.444 1991.17 134.253 1987.88 134.253 1983.4 134.253 1980.12 135.444 1975.63 136.337 1972.35 136.337 1972.35 136.337 1972.35 128 1968.16 128 1968.16 128 1968.16 136.337 1951.43 136.337 1951.43 136.337 1951.43 144.972 1955.91 150.331 1950.54 156.584 1946.05 164.028 1944.86 164.028 1944.86 164.028 1944.86 164.028 1935 164.028 1935 164.028 1935 181.893 1935 181.893 1935 181.893 1935 181.893 1943.96 189.337 1946.05 196.781 1950.54 202.14 1955.91 202.14 1955.91 202.14 1955.91 209.584 1951.43 209.584 1951.43 209.584 1951.43 219.112 1968.16 219.112 1968.16 219.112 1968.16 210.478 1972.35 211.669 1975.63 211.966 1979.82 211.966 1983.4 211.966 1985.49 211.966 1988.18 211.073 1991.17M183.382 1964.88C180.404 1962.79 177.129 1961.59 172.663 1961.59 159.859 1961.59 150.331 1972.65 150.331 1984.6 150.331 1993.26 153.309 1999.84 159.859 2004.02M190.23 2006.11C220.303 2025.23 220.303 2025.23 220.303 2025.23 224.174 2027.62 229.236 2026.73 231.618 2022.84 234 2019.26 233.107 2014.18 229.236 2011.49 198.567 1993.26 198.567 1993.26 198.567 1993.26 197.972 1992.96 197.972 1992.96 197.972 1992.96 198.27 1991.47 197.972 1989.98 197.674 1988.48 195.888 1980.12 187.551 1974.44 179.213 1976.53 176.236 1977.13 173.258 1978.62 171.174 1980.71 185.764 1989.68 185.764 1989.68 185.764 1989.68 182.191 1994.46 182.191 1994.46 182.191 1994.46 168.197 1985.49 168.197 1985.49 168.197 1985.49 167.006 1988.48 166.41 1991.77 167.303 1995.05 169.09 2003.42 177.129 2008.8 185.764 2007.01 186.955 2006.71 188.444 2006.41 189.635 2005.81L190.23 2006.11Z" fill-rule="evenodd"/></g></svg>