<?xml version="1.0" encoding="UTF-8" standalone="no"?>
<svg
   xmlns:dc="http://purl.org/dc/elements/1.1/"
   xmlns:cc="http://creativecommons.org/ns#"
   xmlns:rdf="http://www.w3.org/1999/02/22-rdf-syntax-ns#"
   xmlns:svg="http://www.w3.org/2000/svg"
   xmlns="http://www.w3.org/2000/svg"
   xmlns:sodipodi="http://sodipodi.sourceforge.net/DTD/sodipodi-0.dtd"
   xmlns:inkscape="http://www.inkscape.org/namespaces/inkscape"
   inkscape:version="1.0 (4035a4fb49, 2020-05-01)"
   sodipodi:docname="roi.svg"
   id="svg1528"
   version="1.1"
   overflow="hidden"
   xml:space="preserve"
   height="107"
   width="120"><metadata
     id="metadata1532"><rdf:RDF><cc:Work
         rdf:about=""><dc:format>image/svg+xml</dc:format><dc:type
           rdf:resource="http://purl.org/dc/dcmitype/StillImage" /><dc:title></dc:title></cc:Work></rdf:RDF></metadata><sodipodi:namedview
     inkscape:current-layer="svg1528"
     inkscape:window-maximized="1"
     inkscape:window-y="-8"
     inkscape:window-x="-8"
     inkscape:cy="53.5"
     inkscape:cx="60"
     inkscape:zoom="6.8691589"
     showgrid="false"
     id="namedview1530"
     inkscape:window-height="992"
     inkscape:window-width="1620"
     inkscape:pageshadow="2"
     inkscape:pageopacity="0"
     guidetolerance="10"
     gridtolerance="10"
     objecttolerance="10"
     borderopacity="1"
     bordercolor="#666666"
     pagecolor="#ffffff" /><defs
     id="defs1522"><clipPath
       id="clip0"><rect
         id="rect1519"
         height="107"
         width="120"
         y="1631"
         x="121" /></clipPath><clipPath
       id="clip0-4"><rect
         x="402"
         y="556"
         width="41"
         height="42"
         id="rect928" /></clipPath></defs><g
     clip-path="url(#clip0-4)"
     transform="matrix(3.283556,0,0,3.1057744,-1326.7418,-1738.9685)"
     id="g935"><path
       d="m 21.3542,29.5542 v 2.2635 h -1.7084 v -2.2635 c -0.9823,-0.3417 -1.7083,-1.2813 -1.7083,-2.4344 0,-1.4094 1.1531,-2.5625 2.5625,-2.5625 1.4094,0 2.5625,1.1531 2.5625,2.5625 0,1.1104 -0.726,2.05 -1.7083,2.4344 z m -7.2604,-15.674 c 0,-3.5448 2.8614,-6.40624 6.4062,-6.40624 3.5448,0 6.4062,2.86144 6.4062,6.40624 v 4.7406 L 20.5,18.151 14.0938,18.6208 Z m 15.375,4.9115 v -4.9115 c 0,-4.95416 -4.0146,-8.96874 -8.9688,-8.96874 -4.9542,0 -8.9688,4.01458 -8.9688,8.96874 v 4.9115 L 8.54167,19.0052 V 35.2344 L 20.5,36.0885 32.4583,35.2344 V 19.0052 Z"
       transform="matrix(1,0,0,1.02439,402,556)"
       id="path933" /></g></svg>
