<svg xmlns="http://www.w3.org/2000/svg" viewBox="0 0 53.31 41.28"><defs><style>.cls-1{fill:#323232;}</style></defs><g id="Layer_2" data-name="Layer 2"><g id="Layer_1-2" data-name="Layer 1"><path class="cls-1" d="M38.51,20.73a2.26,2.26,0,0,1,.7-1.68l5-5a2.33,2.33,0,0,1,1.69-.69,2.25,2.25,0,0,1,1.65.69l5,5a2.38,2.38,0,0,1,0,3.37l-5,5a2.22,2.22,0,0,1-1.65.7,2.3,2.3,0,0,1-1.69-.7l-5-5A2.26,2.26,0,0,1,38.51,20.73Z"/><path class="cls-1" d="M11.12,7.42a2.31,2.31,0,0,1,.69-1.69l5.07-5A2.3,2.3,0,0,1,18.57,0a2.22,2.22,0,0,1,1.65.7l5,5A2.31,2.31,0,0,1,26,7.42a2.28,2.28,0,0,1-.69,1.65l-5,5a2.22,2.22,0,0,1-1.65.7,2.3,2.3,0,0,1-1.69-.7l-5.07-5A2.28,2.28,0,0,1,11.12,7.42Z"/><path class="cls-1" d="M27.5,7.42a2.28,2.28,0,0,1,.7-1.69l5.06-5A2.3,2.3,0,0,1,35,0a2.26,2.26,0,0,1,1.66.7l5,5a2.32,2.32,0,0,1,.7,1.69,2.29,2.29,0,0,1-.7,1.65l-5,5a2.26,2.26,0,0,1-1.66.7,2.3,2.3,0,0,1-1.69-.7l-5.06-5A2.25,2.25,0,0,1,27.5,7.42Z"/><path class="cls-1" d="M43.18,32.6,29.29,18.72c-.22-.23-.45-.48-.69-.76a8,8,0,0,0-.77-.77A4.8,4.8,0,0,0,27,16.6a2,2,0,0,0-1-.23,2.14,2.14,0,0,0-1,.23,4.53,4.53,0,0,0-.86.59,7,7,0,0,0-.77.77l-.7.76L8.77,32.6a2.34,2.34,0,0,0,0,3.34l5.3,5.32a4.71,4.71,0,0,1,.51-.61l8.58-8.51A3.87,3.87,0,0,1,26,31a3.7,3.7,0,0,1,2.76,1.11c.73.75,1.46,1.5,2.21,2.24l6.34,6.34a4.35,4.35,0,0,1,.52.63l5.33-5.34a2.37,2.37,0,0,0,0-3.34Z"/><path class="cls-1" d="M7.42,12.2a2.27,2.27,0,0,1,1.65.69l5,5a2.38,2.38,0,0,1,0,3.37l-5,5a2.24,2.24,0,0,1-1.65.7,2.28,2.28,0,0,1-1.69-.7l-5-5a2.38,2.38,0,0,1,0-3.37l5-5A2.31,2.31,0,0,1,7.42,12.2Z"/></g></g></svg>