<svg xmlns="http://www.w3.org/2000/svg" height="1080" width="1920"><path style="fill:#00cef6;fill-opacity:1;stroke:none;stroke-width:12.2373;stroke-miterlimit:4;stroke-dasharray:none;stroke-opacity:1" d="M4.7 23.067V722.41c6.81 3.37 5.166 2.716 13.624 6.803a2895.702 2895.702 0 0 0 63.584 29.768c24.04 10.9 50.595 22.537 78.665 34.194 28.07 11.657 57.657 23.337 87.765 34.312 30.109 10.976 60.739 21.247 90.894 30.103 15.078 4.427 30.035 8.499 44.75 12.127 14.716 3.628 29.195 6.816 43.3 9.465 14.105 2.649 27.843 4.762 41.089 6.252 13.245 1.49 25.994 2.352 38.13 2.502 20.352.254 40.504-.592 60.478-2.405 19.974-1.811 39.772-4.59 59.418-8.203 19.646-3.613 39.14-8.063 58.508-13.215 19.368-5.15 38.606-11.005 57.747-17.431 19.14-6.426 38.18-13.417 57.143-20.854 18.963-7.437 37.852-15.317 56.687-23.502 37.671-16.37 75.133-33.97 112.594-51.75 37.46-17.783 74.92-35.745 112.572-52.832 18.826-8.543 37.697-16.872 56.646-24.847 18.948-7.975 37.971-15.6 57.092-22.743 19.122-7.143 38.346-13.802 57.69-19.85 19.345-6.047 38.813-11.48 58.43-16.17 19.618-4.689 39.386-8.635 59.326-11.702 19.94-3.067 40.05-5.252 60.364-6.433 11.824-.688 24.348-.874 37.434-.62 13.085.253 26.737.945 40.818 2.02 14.081 1.077 28.59 2.537 43.4 4.315 14.809 1.778 29.912 3.877 45.183 6.238 30.542 4.72 61.742 10.487 92.53 16.818 30.787 6.331 61.163 13.223 90.061 20.205 28.9 6.983 56.32 14.054 81.196 20.729a3582.834 3582.834 0 0 1 65.519 18.253V23.067z" transform="translate(-4.7 -23.066)"/><g transform="matrix(.13117 0 0 .2502 1397.117 480.16)"><path style="fill:#a05a2c;fill-opacity:1;stroke-width:.900999" d="M137.583 264.583h21.167v68.792h-21.167z"/><path style="fill:#520;fill-opacity:1;stroke-width:.637102" d="M148.167 264.583h10.583v68.792h-10.583z"/><path style="fill:#000;fill-opacity:.421687;stroke-width:3.40535" d="M520 1080v60h80v-60z" transform="scale(.26458)"/><path transform="matrix(1.1458 0 0 .99188 27.121 180.209)" d="m31.75 116.417 74.463-127.658 73.324 128.316z" style="fill:green;stroke-width:.900999"/><path style="fill:#000;fill-opacity:.385542;stroke-width:4.30749" d="m453.959 800-53.906 80H720v-2.389L668.77 800z" transform="scale(.26458)"/><path style="fill:green;stroke-width:.900999" d="m31.75 116.417 74.463-127.658 73.324 128.316z" transform="matrix(.71612 0 0 .74744 72.513 134.744)"/><path style="fill:#000;fill-opacity:.401606;stroke-width:3.73037" d="m515.443 560-44.709 80h179.768l-43.799-80z" transform="scale(.26458)"/><path style="fill:green;stroke-width:.900999" d="m31.75 116.417 74.463-127.658 73.324 128.316z" transform="matrix(.50129 0 0 .49701 95.21 100.562)"/><ellipse style="fill:#d40000;fill-opacity:1;stroke-width:.595085" cx="152.702" cy="128.134" rx="6.804" ry="7.182"/><ellipse cy="264.205" cx="165.176" style="fill:#d40000;fill-opacity:1;stroke-width:.578319" rx="7.182" ry="6.426"/><ellipse cy="182.562" cx="139.095" style="fill:#00f;fill-opacity:1;stroke-width:.756024" rx="9.071" ry="8.693"/><circle style="fill:#00f;fill-opacity:1;stroke-width:.514857" cx="133.048" cy="144.387" r="6.048"/><ellipse cy="248.708" cx="127.378" style="fill:#f60;fill-opacity:1;stroke-width:.627275" rx="7.182" ry="7.56"/><ellipse style="fill:#f60;fill-opacity:1;stroke-width:.561052" cx="124.354" cy="207.887" rx="7.182" ry="6.048"/><ellipse cy="277.057" cx="107.345" style="fill:gold;fill-opacity:1;stroke-width:.530702" rx="6.048" ry="6.426"/><ellipse style="fill:gold;fill-opacity:1;stroke-width:.674983" cx="165.554" cy="208.643" rx="8.315" ry="7.56"/><circle style="fill:#00f;fill-opacity:1;stroke-width:.579213" cx="185.964" cy="276.679" r="6.804"/></g><path style="fill:#000;fill-opacity:.546185;stroke-width:1.37266" d="m-233.303 326.121-51.12 107.531 26.669.147-8.286 18.345-40.123 88.85 24.655.143-10.143 18.629-57.994 106.513 101.457.485V730.164h28.986V666.9l101.455.485-57.974-108.692-8.938-16.758-.129-.242 23.56.135-47.673-107.764 25.934.143z" transform="matrix(.09578 0 0 .14762 1438.934 455.778)"/><path style="fill:#b5eaff;fill-opacity:1;stroke:none;stroke-width:3.60586px;stroke-linecap:butt;stroke-linejoin:miter;stroke-opacity:1" d="M1897.796 688.696c-8.541-2.787-15.456-5.164-40.625-12.788a3291.017 3291.017 0 0 0-62.62-18.283c-23.629-6.646-49.668-13.69-77.118-20.642-27.45-6.952-56.309-13.818-85.553-20.122s-58.88-12.042-87.89-16.742c-14.505-2.35-28.852-4.44-42.92-6.21-14.066-1.77-27.85-3.224-41.224-4.295-13.376-1.072-26.344-1.766-38.773-2.02-12.43-.252-24.32-.066-35.55.618-19.295 1.176-38.404 3.358-57.345 6.411-18.94 3.054-37.717 6.981-56.351 11.65-18.634 4.67-37.126 10.083-55.501 16.104-18.374 6.022-36.63 12.656-54.793 19.768-18.162 7.113-36.23 14.707-54.228 22.648-17.998 7.94-35.924 16.228-53.806 24.736-35.764 17.014-71.344 34.894-106.927 52.6-35.583 17.706-71.173 35.233-106.955 51.533-17.891 8.15-35.83 15.998-53.843 23.403-18.011 7.406-36.097 14.369-54.278 20.767-18.18 6.398-36.452 12.231-54.85 17.36-18.397 5.13-36.918 9.558-55.579 13.156-18.661 3.598-37.465 6.362-56.437 8.166-18.973 1.804-38.114 2.645-57.445 2.394-11.529-.15-23.64-1.008-36.221-2.49-12.582-1.484-25.633-3.594-39.03-6.232-13.399-2.637-27.148-5.803-41.126-9.415-13.978-3.613-28.183-7.671-42.505-12.08-28.643-8.818-57.74-19.046-86.339-29.975-28.599-10.928-56.702-22.557-83.365-34.165-26.663-11.607-51.881-23.193-74.716-34.047a2693.794 2693.794 0 0 1-60.397-29.641c-23.476-11.89-29.315-15.221-37.808-19.803v407.797h1892.118z" transform="translate(-4.7 -23.066)"/><path style="fill:#e2fefe;fill-opacity:1;stroke:none;stroke-width:3.61483px;stroke-linecap:butt;stroke-linejoin:miter;stroke-opacity:1" d="M1930.668 702.682c-4.243-2.899-7.046-4.92-18.652-12.406-17.042-10.991-40.78-25.747-67.551-40.82-13.387-7.535-27.534-15.15-41.981-22.41-14.447-7.262-29.198-14.167-43.793-20.289-14.594-6.122-29.033-11.458-42.861-15.577-6.914-2.06-13.677-3.82-20.228-5.218-6.55-1.397-12.886-2.434-18.96-3.06a652.915 652.915 0 0 0-46.055-3.094 692.85 692.85 0 0 0-45.928.067 745.702 745.702 0 0 0-45.82 3.011 817.275 817.275 0 0 0-45.697 5.725 911.557 911.557 0 0 0-45.605 8.215 1029.806 1029.806 0 0 0-45.497 10.477 1180.981 1180.981 0 0 0-45.405 12.51 1373.806 1373.806 0 0 0-45.311 14.321c-30.18 10.1-60.305 21.255-90.379 33.166-30.073 11.911-60.097 24.578-90.078 37.697-59.96 26.238-119.748 54.291-179.418 81.743-29.835 13.725-59.636 27.299-89.419 40.423-29.783 13.125-59.546 25.797-89.29 37.718-29.744 11.921-59.47 23.093-89.19 33.208a1362.146 1362.146 0 0 1-44.573 14.342 1160.546 1160.546 0 0 1-44.566 12.537 1002.66 1002.66 0 0 1-44.56 10.498 879.671 879.671 0 0 1-44.559 8.243 783.398 783.398 0 0 1-44.573 5.76c-14.858 1.48-29.718 2.514-44.58 3.053a654.11 654.11 0 0 1-44.596.107 612.542 612.542 0 0 1-44.623-3.053 587.778 587.778 0 0 1-44.645-6.439 578.208 578.208 0 0 1-44.681-10.06c-6.654-1.778-13.388-4.217-20.17-7.23-6.783-3.015-13.612-6.603-20.45-10.672-6.838-4.07-13.685-8.625-20.507-13.572-6.821-4.947-13.616-10.287-20.349-15.93-13.465-11.288-26.679-23.784-39.352-36.782-12.672-12.997-24.8-26.493-36.1-39.764-11.3-13.272-21.768-26.324-31.114-38.433A1148.862 1148.862 0 0 1 25.17 737.91c-12.2-17.031-17.87-25.86-19.34-28.122v396.265h1924.838z" transform="translate(-4.7 -23.066)"/><path d="M584.684 942.724c-97.584 195.907 357.997 80.017 487.25 73.916 178.04-5.943 369.904 37.449 533.646-27.402 117.91-46.7 277.614-119.756 280.415-243.524 1.695-74.934-93.378-127.039-162.935-154.967-77.764-31.224-168.736-14.607-251.394-.826-68.045 11.345-130.316 45.312-195.536 67.787-118.403 40.801-355.434 121.748-355.434 121.748-123.225 17.953-249.065 74.122-336.012 163.268z" style="fill:none;stroke:#000;stroke-width:3.68334px;stroke-linecap:butt;stroke-linejoin:miter;stroke-opacity:.02" transform="translate(-4.7 -23.066)"/><g transform="matrix(1.57774 0 0 1.99154 949.052 161.306)"><rect style="fill:#8d969a;fill-opacity:1;stroke:none;stroke-width:1.40962;stroke-opacity:1" width="52.348" height="32.123" x="-145.47" y="351.544" ry="2.656"/><g transform="translate(-277.53 252.796)"><ellipse style="fill:#999;fill-opacity:1;stroke:none;stroke-width:1.25214" cx="147.044" cy="109.233" rx="9.109" ry="9.815"/><ellipse ry="7.436" rx="6.915" cy="109.233" cx="147.044" style="fill:#fff;fill-opacity:1;stroke:none;stroke-width:.949599"/><ellipse style="fill:#1a1a1a;fill-opacity:1;stroke:none;stroke-width:.679364" cx="147.044" cy="109.233" rx="5.205" ry="5.056"/><ellipse ry="1.599" rx="1.338" cy="106.667" cx="144.628" style="fill:#fff;fill-opacity:1;stroke:none;stroke-width:.193711"/></g><g transform="translate(-254.926 252.796)"><ellipse ry="9.815" rx="9.109" cy="109.233" cx="147.044" style="fill:#999;fill-opacity:1;stroke:none;stroke-width:1.25214"/><ellipse style="fill:#fff;fill-opacity:1;stroke:none;stroke-width:.949599" cx="147.044" cy="109.233" rx="6.915" ry="7.436"/><ellipse ry="5.056" rx="5.205" cy="109.233" cx="147.044" style="fill:#1a1a1a;fill-opacity:1;stroke:none;stroke-width:.679364"/><ellipse style="fill:#fff;fill-opacity:1;stroke:none;stroke-width:.193711" cx="144.628" cy="106.667" rx="1.338" ry="1.599"/></g><path style="fill:#fff;fill-opacity:1;stroke:none;stroke-width:1.329;stroke-opacity:1" d="M-111.562 372.067a8.328 8.03 0 0 1-4.583 7.172 8.328 8.03 0 0 1-8.704-.72 8.328 8.03 0 0 1-3.248-7.82l8.206 1.368z"/><rect style="fill:#465257;fill-opacity:1;stroke:none;stroke-width:1.329;stroke-opacity:1" width="20.82" height="10.113" x="-312.595" y="217.031" ry="2.361" transform="rotate(-32.163)"/><rect transform="scale(-1 1) rotate(-32.163)" ry="2.361" y="344.688" x="-110.147" height="10.113" width="20.82" style="fill:#465257;fill-opacity:1;stroke:none;stroke-width:1.329;stroke-opacity:1"/><rect ry="2.656" y="102.639" x="386.939" height="32.123" width="30.041" style="fill:#8d969a;fill-opacity:1;stroke:none;stroke-width:1.06784;stroke-opacity:1" transform="rotate(90)"/><g transform="matrix(.7594 .14422 -.13675 .7201 -159.044 342.591)"><path d="m10.342 68.147 8.42-5.633c.846-.567 1.886-.156 2.332.92l.31.75c.446 1.076.123 2.399-.723 2.965l-8.42 5.634c-.846.566-1.886.156-2.332-.92l-.31-.75c-.446-1.077-.123-2.4.723-2.966z" style="fill:#465257;fill-opacity:1;stroke:none;stroke-width:1.49847;stroke-opacity:1"/><path style="fill:#465257;fill-opacity:1;stroke:none;stroke-width:1.50943;stroke-opacity:1" d="m9.65 57.643 9.514.109c.957.01 1.72 1.013 1.712 2.247l-.006.86c-.009 1.234-.786 2.219-1.742 2.208l-9.514-.11c-.956-.01-1.72-1.012-1.711-2.246l.006-.86c.008-1.235.785-2.22 1.742-2.208z"/><rect style="fill:#8d969a;fill-opacity:1;stroke:#8d969a;stroke-width:1.329;stroke-opacity:1" width="34.018" height="15.875" x="17.765" y="53.673" ry="2.361"/><rect style="fill:#465257;fill-opacity:1;stroke:none;stroke-width:1.4931;stroke-opacity:1" width="13.88" height="4.859" x="37.968" y="21.811" ry="2.036" transform="matrix(.68184 .7315 -.58948 .80779 0 0)"/></g><g transform="matrix(-.73795 -.23004 -.21813 .69975 -56.626 362.284)"><path style="fill:#465257;fill-opacity:1;stroke:none;stroke-width:1.49847;stroke-opacity:1" d="m10.342 68.147 8.42-5.633c.846-.567 1.886-.156 2.332.92l.31.75c.446 1.076.123 2.399-.723 2.965l-8.42 5.634c-.846.566-1.886.156-2.332-.92l-.31-.75c-.446-1.077-.123-2.4.723-2.966z"/><path d="m9.65 57.643 9.514.109c.957.01 1.72 1.013 1.712 2.247l-.006.86c-.009 1.234-.786 2.219-1.742 2.208l-9.514-.11c-.956-.01-1.72-1.012-1.711-2.246l.006-.86c.008-1.235.785-2.22 1.742-2.208z" style="fill:#465257;fill-opacity:1;stroke:none;stroke-width:1.50943;stroke-opacity:1"/><rect ry="2.361" y="53.673" x="17.765" height="15.875" width="34.018" style="fill:#8d969a;fill-opacity:1;stroke:#8d969a;stroke-width:1.329;stroke-opacity:1"/><rect transform="matrix(.68184 .7315 -.58948 .80779 0 0)" ry="2.036" y="21.811" x="37.968" height="4.859" width="13.88" style="fill:#465257;fill-opacity:1;stroke:none;stroke-width:1.4931;stroke-opacity:1"/></g><g transform="matrix(.66715 0 0 .87304 -191.953 410.368)"><path style="fill:#8d969a;fill-opacity:1;stroke:#8d969a;stroke-width:1.329;stroke-opacity:1" transform="rotate(89.41)" d="M8.518-105.103h29.295a2.356 2.356 0 0 1 2.361 2.361v11.153c0 21.531-7.452 2.763-8.76 2.742l-22.896-.38c-1.308-.022-2.361-1.054-2.361-2.362v-11.153a2.356 2.356 0 0 1 2.36-2.36z"/><ellipse style="fill:#8d969a;fill-opacity:1;stroke:none;stroke-width:1.0901;stroke-opacity:1" cx="87.975" cy="39.336" rx="2.016" ry="2.008"/><ellipse ry="2.008" rx="2.016" cy="39.336" cx="92.888" style="fill:#8d969a;fill-opacity:1;stroke:none;stroke-width:1.0901;stroke-opacity:1"/><ellipse style="fill:#8d969a;fill-opacity:1;stroke:none;stroke-width:1.0901;stroke-opacity:1" cx="97.424" cy="39.336" rx="2.016" ry="2.008"/><ellipse ry="2.008" rx="2.016" cy="39.336" cx="102.086" style="fill:#8d969a;fill-opacity:1;stroke:none;stroke-width:1.0901;stroke-opacity:1"/><rect style="fill:#465257;fill-opacity:1;stroke:none;stroke-width:1.329;stroke-opacity:1" width="21.564" height="5.8" x="86.405" y="13.385" ry="2.9"/></g><g transform="matrix(-.66715 0 0 .87304 -45.084 410.368)"><path d="M8.518-105.103h29.295a2.356 2.356 0 0 1 2.361 2.361v11.153c0 21.531-7.452 2.763-8.76 2.742l-22.896-.38c-1.308-.022-2.361-1.054-2.361-2.362v-11.153a2.356 2.356 0 0 1 2.36-2.36z" transform="rotate(89.41)" style="fill:#8d969a;fill-opacity:1;stroke:#8d969a;stroke-width:1.329;stroke-opacity:1"/><ellipse ry="2.008" rx="2.016" cy="39.336" cx="87.975" style="fill:#8d969a;fill-opacity:1;stroke:none;stroke-width:1.0901;stroke-opacity:1"/><ellipse style="fill:#8d969a;fill-opacity:1;stroke:none;stroke-width:1.0901;stroke-opacity:1" cx="92.888" cy="39.336" rx="2.016" ry="2.008"/><ellipse ry="2.008" rx="2.016" cy="39.336" cx="97.424" style="fill:#8d969a;fill-opacity:1;stroke:none;stroke-width:1.0901;stroke-opacity:1"/><ellipse style="fill:#8d969a;fill-opacity:1;stroke:none;stroke-width:1.0901;stroke-opacity:1" cx="102.086" cy="39.336" rx="2.016" ry="2.008"/><rect ry="2.9" y="13.385" x="86.405" height="5.8" width="21.564" style="fill:#465257;fill-opacity:1;stroke:none;stroke-width:1.329;stroke-opacity:1"/></g></g><g transform="matrix(1.36948 0 0 1.69481 1031.495 156.231)"><path style="fill:#a05a2c;fill-opacity:1;stroke-width:.900999" d="M137.583 264.583h21.167v68.792h-21.167z"/><path style="fill:#520;fill-opacity:1;stroke-width:.637102" d="M148.167 264.583h10.583v68.792h-10.583z"/><path transform="scale(.26458)" d="M520 1080v60h80v-60z" style="fill:#000;fill-opacity:.421687;stroke-width:3.40535"/><path style="fill:green;stroke-width:.900999" d="m31.75 116.417 74.463-127.658 73.324 128.316z" transform="matrix(1.1458 0 0 .99188 27.121 180.209)"/><path transform="scale(.26458)" d="m453.959 800-53.906 80H720v-2.389L668.77 800z" style="fill:#000;fill-opacity:.385542;stroke-width:4.30749"/><path transform="matrix(.71612 0 0 .74744 72.513 134.744)" d="m31.75 116.417 74.463-127.658 73.324 128.316z" style="fill:green;stroke-width:.900999"/><path transform="scale(.26458)" d="m515.443 560-44.709 80h179.768l-43.799-80z" style="fill:#000;fill-opacity:.401606;stroke-width:3.73037"/><path transform="matrix(.50129 0 0 .49701 95.21 100.562)" d="m31.75 116.417 74.463-127.658 73.324 128.316z" style="fill:green;stroke-width:.900999"/><ellipse ry="7.182" rx="6.804" cy="128.134" cx="152.702" style="fill:#d40000;fill-opacity:1;stroke-width:.595085"/><ellipse ry="6.426" rx="7.182" style="fill:#d40000;fill-opacity:1;stroke-width:.578319" cx="165.176" cy="264.205"/><ellipse ry="8.693" rx="9.071" style="fill:#00f;fill-opacity:1;stroke-width:.756024" cx="139.095" cy="182.562"/><circle r="6.048" cy="144.387" cx="133.048" style="fill:#00f;fill-opacity:1;stroke-width:.514857"/><ellipse ry="7.56" rx="7.182" style="fill:#f60;fill-opacity:1;stroke-width:.627275" cx="127.378" cy="248.708"/><ellipse ry="6.048" rx="7.182" cy="207.887" cx="124.354" style="fill:#f60;fill-opacity:1;stroke-width:.561052"/><ellipse ry="6.426" rx="6.048" style="fill:gold;fill-opacity:1;stroke-width:.530702" cx="107.345" cy="277.057"/><ellipse ry="7.56" rx="8.315" cy="208.643" cx="165.554" style="fill:gold;fill-opacity:1;stroke-width:.674983"/><circle cy="276.679" cx="185.964" style="fill:#00f;fill-opacity:1;stroke-width:.579213" r="6.804"/></g><g transform="matrix(1.36948 0 0 1.69481 1031.495 156.231)"><path style="fill:#a05a2c;fill-opacity:1;stroke-width:.900999" d="M137.583 264.583h21.167v68.792h-21.167z"/><path style="fill:#520;fill-opacity:1;stroke-width:.637102" d="M148.167 264.583h10.583v68.792h-10.583z"/><path style="fill:#000;fill-opacity:.421687;stroke-width:3.40535" d="M520 1080v60h80v-60z" transform="scale(.26458)"/><path transform="matrix(1.1458 0 0 .99188 27.121 180.209)" d="m31.75 116.417 74.463-127.658 73.324 128.316z" style="fill:green;stroke-width:.900999"/><path style="fill:#000;fill-opacity:.385542;stroke-width:4.30749" d="m453.959 800-53.906 80H720v-2.389L668.77 800z" transform="scale(.26458)"/><path style="fill:green;stroke-width:.900999" d="m31.75 116.417 74.463-127.658 73.324 128.316z" transform="matrix(.71612 0 0 .74744 72.513 134.744)"/><path style="fill:#000;fill-opacity:.401606;stroke-width:3.73037" d="m515.443 560-44.709 80h179.768l-43.799-80z" transform="scale(.26458)"/><path style="fill:green;stroke-width:.900999" d="m31.75 116.417 74.463-127.658 73.324 128.316z" transform="matrix(.50129 0 0 .49701 95.21 100.562)"/><ellipse style="fill:#d40000;fill-opacity:1;stroke-width:.595085" cx="152.702" cy="128.134" rx="6.804" ry="7.182"/><ellipse cy="264.205" cx="165.176" style="fill:#d40000;fill-opacity:1;stroke-width:.578319" rx="7.182" ry="6.426"/><ellipse cy="182.562" cx="139.095" style="fill:#00f;fill-opacity:1;stroke-width:.756024" rx="9.071" ry="8.693"/><circle style="fill:#00f;fill-opacity:1;stroke-width:.514857" cx="133.048" cy="144.387" r="6.048"/><ellipse cy="248.708" cx="127.378" style="fill:#f60;fill-opacity:1;stroke-width:.627275" rx="7.182" ry="7.56"/><ellipse style="fill:#f60;fill-opacity:1;stroke-width:.561052" cx="124.354" cy="207.887" rx="7.182" ry="6.048"/><ellipse cy="277.057" cx="107.345" style="fill:gold;fill-opacity:1;stroke-width:.530702" rx="6.048" ry="6.426"/><ellipse style="fill:gold;fill-opacity:1;stroke-width:.674983" cx="165.554" cy="208.643" rx="8.315" ry="7.56"/><circle style="fill:#00f;fill-opacity:1;stroke-width:.579213" cx="185.964" cy="276.679" r="6.804"/></g><g transform="matrix(.52328 0 0 .93732 1558.264 286.93)"><path style="fill:#a05a2c;fill-opacity:1;stroke-width:.900999" d="M137.583 264.583h21.167v68.792h-21.167z"/><path style="fill:#520;fill-opacity:1;stroke-width:.637102" d="M148.167 264.583h10.583v68.792h-10.583z"/><path style="fill:#000;fill-opacity:.421687;stroke-width:3.40535" d="M520 1080v60h80v-60z" transform="scale(.26458)"/><path transform="matrix(1.1458 0 0 .99188 27.121 180.209)" d="m31.75 116.417 74.463-127.658 73.324 128.316z" style="fill:green;stroke-width:.900999"/><path style="fill:#000;fill-opacity:.385542;stroke-width:4.30749" d="m453.959 800-53.906 80H720v-2.389L668.77 800z" transform="scale(.26458)"/><path style="fill:green;stroke-width:.900999" d="m31.75 116.417 74.463-127.658 73.324 128.316z" transform="matrix(.71612 0 0 .74744 72.513 134.744)"/><path style="fill:#000;fill-opacity:.401606;stroke-width:3.73037" d="m515.443 560-44.709 80h179.768l-43.799-80z" transform="scale(.26458)"/><path style="fill:green;stroke-width:.900999" d="m31.75 116.417 74.463-127.658 73.324 128.316z" transform="matrix(.50129 0 0 .49701 95.21 100.562)"/><ellipse style="fill:#d40000;fill-opacity:1;stroke-width:.595085" cx="152.702" cy="128.134" rx="6.804" ry="7.182"/><ellipse cy="264.205" cx="165.176" style="fill:#d40000;fill-opacity:1;stroke-width:.578319" rx="7.182" ry="6.426"/><ellipse cy="182.562" cx="139.095" style="fill:#00f;fill-opacity:1;stroke-width:.756024" rx="9.071" ry="8.693"/><circle style="fill:#00f;fill-opacity:1;stroke-width:.514857" cx="133.048" cy="144.387" r="6.048"/><ellipse cy="248.708" cx="127.378" style="fill:#f60;fill-opacity:1;stroke-width:.627275" rx="7.182" ry="7.56"/><ellipse style="fill:#f60;fill-opacity:1;stroke-width:.561052" cx="124.354" cy="207.887" rx="7.182" ry="6.048"/><ellipse cy="277.057" cx="107.345" style="fill:gold;fill-opacity:1;stroke-width:.530702" rx="6.048" ry="6.426"/><ellipse style="fill:gold;fill-opacity:1;stroke-width:.674983" cx="165.554" cy="208.643" rx="8.315" ry="7.56"/><circle style="fill:#00f;fill-opacity:1;stroke-width:.579213" cx="185.964" cy="276.679" r="6.804"/></g></svg>