<svg xmlns="http://www.w3.org/2000/svg" viewBox="0 0 2048 2048">
  <path d="M2048 256v1536H0V256h2048zm-677 1408h202l-229-230-101 102 128 128zm-539-358l-357 358h714l-357-358zm1088-922H128v1280h165l539-538 320 319 192-191 411 410h165V384zm-704 768q-26 0-45-19t-19-45q0-26 19-45t45-19q26 0 45 19t19 45q0 26-19 45t-45 19zM384 640H256V512h128v128zm0 256H256V768h128v128zm0 256H256v-128h128v128zm0 256H256v-128h128v128zm1408-768h-128V512h128v128zm0 256h-128V768h128v128zm0 256h-128v-128h128v128zm0 256h-128v-128h128v128z" />
</svg>