<svg xmlns="http://www.w3.org/2000/svg" viewBox="0 0 2048 2048">
  <path d="M2048 717v102q-51 3-79 23t-43 52-17 69-3 78v37q-32-19-65-33t-68-25v-28q0-37 6-72t22-65 42-52 66-34v-4q-45-13-72-39t-41-62-20-77-5-87q0-45 2-90t2-87q0-43-5-81t-21-67-44-45-77-18V0q93 1 148 28t85 72 38 103 9 120q0 43-2 85t-2 84q0 45 5 84t20 70 44 49 75 22zm-749 358q-30 17-58 37t-53 44q-42-66-83-130t-81-132h-4q-55 91-113 179t-116 179H619l318-439-304-455h174q56 94 111 186t108 189h4l232-375h165l-313 452 185 265zM421 0v112q-47 1-76 18t-45 45-21 67-5 82q0 42 2 86t3 88q0 45-5 87t-20 77-42 62-72 41v4q39 11 65 33t43 52 22 65 7 73v253q0 40 5 73t21 56 44 37 74 15v110q-93-1-149-28t-85-71-38-102-9-119q0-45 2-88t2-86q0-45-5-84t-20-69-44-48-75-22V717q46-3 74-21t44-49 20-71 5-85q0-40-1-82t-2-85q0-62 8-120t38-103 85-72T421 0zm1179 1152q93 0 174 35t143 96 96 142 35 175q0 93-35 174t-96 143-142 96-175 35q-93 0-174-35t-143-96-96-142-35-175q0-93 35-174t96-143 142-96 175-35zm-320 448q0 66 25 124t68 102 102 69 125 25q47 0 92-13t84-40l-443-443q-26 39-39 84t-14 92zm587 176q26-39 39-84t14-92q0-66-25-124t-69-101-102-69-124-26q-47 0-92 13t-84 40l443 443z" />
</svg>