<svg xmlns="http://www.w3.org/2000/svg" viewBox="0 0 2048 2048">
  <path d="M987 1152l588 588-45 46q-62 63-136 111t-155 82-168 51-175 18q-124 0-238-32t-214-90-181-140-140-181-91-214-32-239q0-88 17-174t51-168 82-156 112-136l46-45 588 588 132-132q-4-15-4-33 0-27 10-50t27-40 41-28 50-10q27 0 50 10t40 27 28 41 10 50q0 27-10 50t-27 40-41 28-50 10q-18 0-33-4l-132 132zm-91 768q137 0 264-46t232-135L309 656q-88 104-134 231t-47 264q0 106 27 204t78 184 120 156 155 120 183 77 205 28zm128-1536q133 0 249 50t204 137 137 203 50 250h-128q0-106-40-199t-110-162-163-110-199-41V384zm0-384q141 0 272 36t245 103 207 160 160 208 103 245 37 272h-128q0-123-32-237t-90-214-141-182-181-140-214-91-238-32V0z" />
</svg>