<?xml version="1.0" encoding="UTF-8" standalone="no"?>
<svg
   xmlns:dc="http://purl.org/dc/elements/1.1/"
   xmlns:cc="http://creativecommons.org/ns#"
   xmlns:rdf="http://www.w3.org/1999/02/22-rdf-syntax-ns#"
   xmlns:svg="http://www.w3.org/2000/svg"
   xmlns="http://www.w3.org/2000/svg"
   xmlns:sodipodi="http://sodipodi.sourceforge.net/DTD/sodipodi-0.dtd"
   xmlns:inkscape="http://www.inkscape.org/namespaces/inkscape"
   inkscape:version="1.0 (4035a4fb49, 2020-05-01)"
   sodipodi:docname="automation-kit-migration-developer.svg"
   id="svg128"
   version="1.1"
   overflow="hidden"
   height="130.75977"
   width="825.93744">
  <metadata
     id="metadata132">
    <rdf:RDF>
      <cc:Work
         rdf:about="">
        <dc:format>image/svg+xml</dc:format>
        <dc:type
           rdf:resource="http://purl.org/dc/dcmitype/StillImage" />
      </cc:Work>
    </rdf:RDF>
  </metadata>
  <sodipodi:namedview
     inkscape:current-layer="g126"
     inkscape:window-maximized="1"
     inkscape:window-y="-8"
     inkscape:window-x="-8"
     inkscape:cy="327.62064"
     inkscape:cx="400.93744"
     inkscape:zoom="0.88828125"
     showgrid="false"
     id="namedview130"
     inkscape:window-height="992"
     inkscape:window-width="1620"
     inkscape:pageshadow="2"
     inkscape:pageopacity="0"
     guidetolerance="10"
     gridtolerance="10"
     objecttolerance="10"
     borderopacity="1"
     bordercolor="#666666"
     pagecolor="#ffffff" />
  <defs
     id="defs32">
    <clipPath
       id="clip0">
      <rect
         id="rect2"
         height="720"
         width="1280"
         y="0"
         x="0" />
    </clipPath>
    <clipPath
       id="clip1">
      <rect
         id="rect5"
         height="53"
         width="52"
         y="86"
         x="600" />
    </clipPath>
    <clipPath
       id="clip2">
      <rect
         id="rect8"
         height="53"
         width="52"
         y="86"
         x="600" />
    </clipPath>
    <clipPath
       id="clip3">
      <rect
         id="rect11"
         height="53"
         width="52"
         y="86"
         x="600" />
    </clipPath>
    <clipPath
       id="clip4">
      <rect
         id="rect14"
         height="52"
         width="52"
         y="86"
         x="549" />
    </clipPath>
    <clipPath
       id="clip5">
      <rect
         id="rect17"
         height="52"
         width="52"
         y="86"
         x="549" />
    </clipPath>
    <clipPath
       id="clip6">
      <rect
         id="rect20"
         height="52"
         width="52"
         y="86"
         x="549" />
    </clipPath>
    <clipPath
       id="clip7">
      <rect
         id="rect23"
         height="66"
         width="67"
         y="91"
         x="409" />
    </clipPath>
    <clipPath
       id="clip8">
      <rect
         id="rect26"
         height="66"
         width="67"
         y="91"
         x="409" />
    </clipPath>
    <clipPath
       id="clip9">
      <rect
         id="rect29"
         height="66"
         width="67"
         y="91"
         x="409" />
    </clipPath>
  </defs>
  <g
     transform="translate(-239.06256,-26)"
     id="g126"
     clip-path="url(#clip0)">
    <rect
       id="rect34"
       fill="#ffffff"
       height="168.37296"
       width="866.84253"
       y="10.131927"
       x="212.77045" />
    <g
       id="g1002">
      <rect
         x="756"
         y="88"
         width="22"
         height="9"
         fill="#ffffff"
         id="rect36" />
      <path
         d="m 263.422,102.106 c 0,3.874 -3.059,7.028 -6.841,7.028 -3.782,0 -6.84,-3.154 -6.84,-7.028 0,-3.8855 3.058,-7.039 6.84,-7.039 3.782,0 6.841,3.1535 6.841,7.039 z M 270.274,81 c -3.783,0 -6.852,3.1535 -6.852,7.0391 0,3.8856 3.069,7.0279 6.852,7.0279 3.782,0 6.84,-3.1423 6.84,-7.0279 0,-3.8856 -3.058,-7.0391 -6.84,-7.0391 z m 9.581,19.439 c -3.026,0 -5.481,2.523 -5.481,5.62 0,3.109 2.455,5.632 5.481,5.632 3.025,0 5.47,-2.523 5.47,-5.632 0,-3.097 -2.445,-5.62 -5.47,-5.62 z m -13.692,18.538 c 0,-5.439 -4.287,-9.843 -9.582,-9.843 -5.295,0 -9.581,4.404 -9.581,9.843 m 31.857,-18.448 c -1.567,-3.232 -4.823,-5.462 -8.583,-5.462 -2.949,0 -5.58,1.3628 -7.345,3.5139 M 288,119 c 0,-0.259 0,-0.259 0,-0.259 -0.658,-3.998 -4.056,-7.05 -8.145,-7.05 -4.089,0 -7.488,3.04 -8.156,7.05 0,0.259 0,0.259 0,0.259"
         stroke="#000000"
         stroke-width="1.66667"
         stroke-linecap="square"
         stroke-miterlimit="8"
         fill="none"
         fill-rule="evenodd"
         id="path38" />
      <text
         font-family="'Segoe UI', 'Segoe UI_MSFontService', sans-serif"
         font-weight="400"
         font-size="12px"
         transform="translate(241.708,140)"
         id="text40">Migration</text>
      <text
         font-family="'Segoe UI', 'Segoe UI_MSFontService', sans-serif"
         font-weight="400"
         font-size="12px"
         transform="translate(237.961,154)"
         id="text42">Developers</text>
      <text
         font-family="'Segoe UI', 'Segoe UI_MSFontService', sans-serif"
         font-weight="400"
         font-size="14px"
         transform="translate(836.01,148)"
         id="text44">Test</text>
      <text
         font-family="'Segoe UI', 'Segoe UI_MSFontService', sans-serif"
         font-weight="400"
         font-size="14px"
         transform="translate(907.23,148)"
         id="text46">Deploy</text>
      <text
         font-family="'Segoe UI', 'Segoe UI_MSFontService', sans-serif"
         font-weight="400"
         font-size="14px"
         transform="translate(967.02,148)"
         id="text48">Maintenance</text>
      <path
         d="m 948,88.3295 c -0.648,9.0058 -5.074,15.2655 -5.074,15.2655 0,0 0,0 -20.187,20.208 0,0 0,0 -7.341,2.197 0,0 0,0 -5.398,-5.601 0,0 0,0 3.239,-7.468 0,0 12.846,-12.9599 18.676,-19.0004 C 937.744,88 948,88.3295 948,88.3295 Z m -16.085,5.711 c 10.579,9.9945 10.579,9.9945 10.579,9.9945 m -16.949,-3.625 c -15.545,0 -15.545,0 -15.545,0 0,9.226 0,9.226 0,9.226 3.239,3.295 3.239,3.295 3.239,3.295 m 0,0 c 9.716,10.653 9.716,10.653 9.716,10.653 2.267,2.416 2.267,2.416 2.267,2.416 9.823,0 9.823,0 9.823,0 0,-14.497 0,-14.497 0,-14.497 M 929,105.462 c 0,1.099 0.864,1.977 1.943,1.977 0.972,0 1.835,-0.878 1.835,-1.977 0,-1.098 -0.863,-1.976 -1.835,-1.976 -1.079,0 -1.943,0.878 -1.943,1.976 z"
         stroke="#000000"
         stroke-width="1.66667"
         stroke-linecap="square"
         stroke-miterlimit="8"
         fill="none"
         fill-rule="evenodd"
         id="path50" />
      <path
         d="m 845.182,91.8 c 0,-2.0976 1.71,-3.8 3.818,-3.8 2.108,0 3.818,1.7024 3.818,3.8 0,1.2667 0,1.2667 0,1.2667 5.091,0 5.091,0 5.091,0 0,5.0666 0,5.0666 0,5.0666 -17.818,0 -17.818,0 -17.818,0 0,-5.0666 0,-5.0666 0,-5.0666 5.091,0 5.091,0 5.091,0 z m -5.091,1.2667 c -5.091,0 -5.091,0 -5.091,0 C 835,126 835,126 835,126 c 28,0 28,0 28,0 0,-32.9333 0,-32.9333 0,-32.9333 -5.091,0 -5.091,0 -5.091,0 m 1.273,12.6663 c -10.182,0 -10.182,0 -10.182,0 m 10.182,7.6 c -10.182,0 -10.182,0 -10.182,0 m 10.182,7.6 c -10.182,0 -10.182,0 -10.182,0 M 840.091,103.2 c 2.545,2.533 2.545,2.533 2.545,2.533 3.819,-3.8 3.819,-3.8 3.819,-3.8 m -6.364,8.867 c 2.545,2.533 2.545,2.533 2.545,2.533 3.819,-3.8 3.819,-3.8 3.819,-3.8 m -6.364,8.867 c 2.545,2.533 2.545,2.533 2.545,2.533 3.819,-3.8 3.819,-3.8 3.819,-3.8"
         stroke="#000000"
         stroke-width="1.66667"
         stroke-miterlimit="8"
         fill="none"
         fill-rule="evenodd"
         id="path52" />
      <path
         d="m 1000.7,97.6922 c 0,25.7178 0,25.7178 0,25.7178 0,1.427 -1.156,2.59 -2.576,2.59 0,0 0,0 0,0 -1.419,0 -2.577,-1.163 -2.577,-2.59 0,-25.7178 0,-25.7178 0,-25.7178 -1.52,-0.9004 -2.547,-2.5495 -2.547,-4.4515 0,-2.8429 2.295,-5.1496 5.124,-5.1496 2.826,0 5.126,2.3067 5.126,5.1496 0,1.902 -1.03,3.5511 -2.55,4.4515 z m 7.43,10.6638 c 0,15.054 0,15.054 0,15.054 0,1.427 1.16,2.59 2.58,2.59 0,0 0,0 0,0 1.42,0 2.58,-1.163 2.58,-2.59 0,-15.054 0,-15.054 0,-15.054 M 998.124,88 c 0,5.1496 0,5.1496 0,5.1496 m 6.296,15.2064 c 12.58,0 12.58,0 12.58,0 m -6.29,0 c 0,-13.1627 0,-13.1627 0,-13.1627 m 2.58,-7.1022 c -5.16,0 -5.16,0 -5.16,0 0,5.0686 0,5.0686 0,5.0686 2.58,2.4889 2.58,2.4889 2.58,2.4889 2.58,-2.4889 2.58,-2.4889 2.58,-2.4889 z"
         stroke="#000000"
         stroke-width="1.66667"
         stroke-miterlimit="8"
         fill="none"
         fill-rule="evenodd"
         id="path54" />
      <text
         font-family="'Segoe UI', 'Segoe UI_MSFontService', sans-serif"
         font-weight="400"
         font-size="14px"
         transform="translate(720.483,150)"
         id="text56">Build</text>
      <text
         font-family="'Segoe UI', 'Segoe UI_MSFontService', sans-serif"
         font-weight="400"
         font-size="14px"
         transform="translate(751.149,150)"
         id="text58">-</text>
      <text
         font-family="'Segoe UI', 'Segoe UI_MSFontService', sans-serif"
         font-weight="400"
         font-size="14px"
         transform="translate(756.649,150)"
         id="text60">Finalize</text>
      <path
         d="M 747,112.245 768,91 l 21,21.245 m -37.427,-4.49 V 129 h 12.024 v -15.373 h 9.145 V 129 h 11.855 v -21.245"
         stroke="#000000"
         stroke-width="1.66667"
         stroke-miterlimit="8"
         fill="none"
         fill-rule="evenodd"
         id="path62" />
      <path
         d="m 762.5,96.5001 6.5,-5 6.5,5 z"
         stroke="#000000"
         stroke-width="1.33333"
         stroke-miterlimit="8"
         fill="#ffffff"
         fill-rule="evenodd"
         id="path64" />
      <rect
         x="759"
         y="95"
         width="18"
         height="5"
         fill="#ffffff"
         id="rect66" />
      <g
         clip-path="url(#clip1)"
         id="g74">
        <g
           clip-path="url(#clip2)"
           id="g72">
          <g
             clip-path="url(#clip3)"
             id="g70">
            <path
               d="M 9.75,4.33333 V 47.6667 h 32.5 V 16.0258 L 30.5576,4.33333 Z m 21.1342,1.85846 9.5073,9.50731 c 0.0022,0.0021 0.0021,0.0056 0,0.0077 -10e-4,9e-4 -0.0023,0.0015 -0.0038,0.0015 H 30.875 V 6.19558 c 10e-5,-0.00298 0.0025,-0.00536 0.0055,-0.00536 0.0014,6e-5 0.0027,6e-4 0.0037,0.00157 z M 10.8333,46.5833 V 5.41667 H 29.7917 V 16.7917 h 11.375 v 29.7916 z"
               transform="matrix(1,0,0,1.01923,600,86)"
               id="path68" />
          </g>
        </g>
      </g>
      <g
         clip-path="url(#clip4)"
         id="g82">
        <g
           clip-path="url(#clip5)"
           id="g80">
          <g
             clip-path="url(#clip6)"
             id="g78">
            <path
               d="m 558.75,90.3333 v 43.3337 h 32.5 V 102.026 L 579.558,90.3333 Z m 21.134,1.8585 9.508,9.5072 c 0.002,0.002 0.002,0.006 -0.001,0.008 -10e-4,0.001 -0.002,0.001 -0.003,0.001 h -9.513 v -9.5124 c 0,-0.003 0.003,-0.0054 0.005,-0.0054 0.002,10e-5 0.003,6e-4 0.004,0.0016 z M 559.833,132.583 V 91.4167 h 18.959 v 11.3753 h 11.375 v 29.791 z"
               id="path76" />
          </g>
        </g>
      </g>
      <text
         font-family="'Segoe UI', 'Segoe UI_MSFontService', sans-serif"
         font-weight="400"
         font-size="14px"
         transform="translate(579.428,150)"
         id="text84">Migrate</text>
      <path
         d="m 578,111 h 41.706 v 4 H 578 Z m 39.706,-4 12,6 -12,6 z"
         fill="#4472c4"
         id="path86" />
      <g
         clip-path="url(#clip7)"
         id="g94">
        <g
           clip-path="url(#clip8)"
           id="g92">
          <g
             clip-path="url(#clip9)"
             id="g90">
            <path
               d="m 63.25,23.0312 c 0,-1.5125 -1.2375,-2.75 -2.75,-2.75 -0.55,0 -1.0312,0.1376 -1.4437,0.4126 L 47.3,27.4313 c 0.1375,0.7562 0.1375,1.5124 0,2.3374 C 46.75,32.3125 44.3438,34.1 41.7313,34.1 H 29.5625 v -2.75 h 12.375 c 1.5125,0 2.75,-1.2375 2.75,-2.75 0,-1.5125 -1.2375,-2.75 -2.75,-2.75 0,0 -16.3625,0 -16.5,0 -1.1688,0 -2.2687,0.3437 -3.2313,0.8938 l -19.4562,9.35 9.625,9.625 c 4.4688,-4.4688 10.2438,-6.1876 16.5,-6.1876 h 12.8563 c 0.6187,0 1.1687,-0.2062 1.6499,-0.5499 L 62.2875,25.1625 c 0.55,-0.55 0.9625,-1.3062 0.9625,-2.1313 z"
               transform="matrix(1.01515,0,0,1,409,91)"
               id="path88" />
          </g>
        </g>
      </g>
      <text
         font-family="'Segoe UI', 'Segoe UI_MSFontService', sans-serif"
         font-weight="400"
         font-size="14px"
         transform="translate(396.01,148)"
         id="text96">Assess and Plan</text>
      <path
         d="M 434,110 V 95 h -8 v 15 z m -6.667,-14.231 h 5.334 v 13.462 h -5.334 z"
         fill-rule="evenodd"
         id="path98" />
      <path
         d="M 444,110 V 87 h -8 v 23 z m -6.667,-22.2335 h 5.334 v 21.4675 h -5.334 z"
         fill-rule="evenodd"
         id="path100" />
      <path
         d="M 455,110 V 95 h -8 v 15 z m -6.667,-14.231 h 5.334 v 13.462 h -5.334 z"
         fill-rule="evenodd"
         id="path102" />
      <path
         d="m 457,110 h 8 v -8 h -8 z m 1.333,-7.273 h 5.334 v 6.546 h -5.334 z"
         fill-rule="evenodd"
         id="path104" />
      <path
         d="m 430.5,83.625 c 1.036,0 1.875,0.8395 1.875,1.875 0,1.0355 -0.839,1.875 -1.875,1.875 -1.036,0 -1.875,-0.8395 -1.875,-1.875 10e-4,-1.035 0.84,-1.8738 1.875,-1.875 m 0,-0.625 c -1.381,0 -2.5,1.1193 -2.5,2.5 0,1.3807 1.119,2.5 2.5,2.5 1.381,0 2.5,-1.1193 2.5,-2.5 0,-1.3807 -1.119,-2.5 -2.5,-2.5 z"
         fill-rule="evenodd"
         id="path106" />
      <path
         d="m 440.5,79.5 c 1.036,0 1.875,0.6716 1.875,1.5 0,0.8284 -0.839,1.5 -1.875,1.5 -1.036,0 -1.875,-0.6716 -1.875,-1.5 10e-4,-0.828 0.84,-1.499 1.875,-1.5 m 0,-0.5 c -1.381,0 -2.5,0.8954 -2.5,2 0,1.1046 1.119,2 2.5,2 1.381,0 2.5,-0.8954 2.5,-2 0,-1.1046 -1.119,-2 -2.5,-2 z"
         fill-rule="evenodd"
         id="path108" />
      <path
         d="m 451,88.625 c 0.828,0 1.5,0.8395 1.5,1.875 0,1.0355 -0.672,1.875 -1.5,1.875 -0.828,0 -1.5,-0.8395 -1.5,-1.875 10e-4,-1.035 0.672,-1.8738 1.5,-1.875 M 451,88 c -1.105,0 -2,1.1193 -2,2.5 0,1.3807 0.895,2.5 2,2.5 1.105,0 2,-1.1193 2,-2.5 0,-1.3807 -0.895,-2.5 -2,-2.5 z"
         fill-rule="evenodd"
         id="path110" />
      <path
         d="m 461.5,95.625 c 1.036,0 1.875,0.8395 1.875,1.875 0,1.0355 -0.839,1.875 -1.875,1.875 -1.036,0 -1.875,-0.8395 -1.875,-1.875 10e-4,-1.035 0.84,-1.8738 1.875,-1.875 m 0,-0.625 c -1.381,0 -2.5,1.1193 -2.5,2.5 0,1.3807 1.119,2.5 2.5,2.5 1.381,0 2.5,-1.1193 2.5,-2.5 0,-1.3807 -1.119,-2.5 -2.5,-2.5 z"
         fill-rule="evenodd"
         id="path112" />
      <path
         d="M 459.626,96.1653 454.5,92.5001"
         stroke="#000000"
         stroke-width="0.666667"
         stroke-miterlimit="8"
         fill="none"
         fill-rule="evenodd"
         id="path114" />
      <path
         d="M 448.189,88.3528 443.5,83.5"
         stroke="#000000"
         stroke-width="0.666667"
         stroke-miterlimit="8"
         fill="none"
         fill-rule="evenodd"
         id="path116" />
      <path
         d="M 0,0 2.77218,1.11433"
         stroke="#000000"
         stroke-width="0.666667"
         stroke-miterlimit="8"
         fill="none"
         fill-rule="evenodd"
         transform="matrix(1,0,0,-1,434.5,83.6144)"
         id="path118" />
      <rect
         x="356"
         y="26"
         width="709"
         height="26"
         fill="#0066ff"
         id="rect120" />
      <text
         fill="#ffffff"
         font-family="'Segoe UI', 'Segoe UI_MSFontService', sans-serif"
         font-weight="400"
         font-size="21px"
         transform="translate(549.927,45)"
         id="text122">Migration</text>
      <text
         fill="#ffffff"
         font-family="'Segoe UI', 'Segoe UI_MSFontService', sans-serif"
         font-weight="400"
         font-size="21px"
         transform="translate(647.761,45)"
         id="text124">Development Lifecycle</text>
    </g>
  </g>
</svg>
