<svg xmlns="http://www.w3.org/2000/svg" viewBox="0 0 2048 2048">
  <path d="M1216 256H704L960 0l256 256zM704 1664h512l-256 256-256-256zM0 960l256-256v512L0 960zm1920 0l-256 256V704l256 256zm-800-576q60 0 112 22t92 62 61 91 23 113v416q0 93-35 174t-96 143-142 96-175 35q-93 0-174-35t-143-96-96-142-35-175V672q0-60 22-112t62-92 91-61 113-23h320zm160 288q0-33-12-62t-35-51-51-34-62-13h-96v384H896V512h-96q-33 0-62 12t-51 35-34 51-13 62v416q0 66 25 124t68 102 102 69 125 25q66 0 124-25t101-68 69-102 26-125V672z" />
</svg>