<svg xmlns="http://www.w3.org/2000/svg" viewBox="0 0 2048 2048">
  <path d="M2048 1024v1024H1024v-512h128v384h768v-768h-165l82 83-90 90-237-237 237-237 90 90-82 83h293zm-640 0q0 80-30 149t-82 122-123 83-149 30q-80 0-149-30t-122-82-83-122-30-150q0-79 30-149t82-122 122-83 150-30q79 0 149 30t122 82 83 123 30 149zm-640 0q0 53 20 99t55 82 81 55 100 20q53 0 99-20t82-55 55-81 20-100q0-53-20-99t-55-82-81-55-100-20q-53 0-99 20t-82 55-55 81-20 100zM301 723l237 237-237 237-90-90 82-83H0V0h1024v512H896V128H128v768h165l-82-83 90-90z" />
</svg>