<svg width="96" height="96" xmlns="http://www.w3.org/2000/svg" xmlns:xlink="http://www.w3.org/1999/xlink" xml:space="preserve" overflow="hidden"><defs><clipPath id="clip0"><rect x="592" y="312" width="96" height="96"/></clipPath></defs><g clip-path="url(#clip0)" transform="translate(-592 -312)"><path d="M615 326 665 326 665 394 615 394 615 326ZM609 400 671 400 671 320 609 320 609 400Z"/><path d="M642 335 659 335 659 339 642 339Z"/><path d="M642 351 659 351 659 355 642 355Z"/><path d="M642 383 659 383 659 387 642 387Z"/><path d="M642 367 659 367 659 371 642 371Z"/><path d="M635.8 332.8 633 330 626.4 336.6 623.8 334 621 336.8 626.4 342.2Z"/><path d="M635.8 348.8 633 346 626.4 352.6 623.8 350 621 352.8 626.4 358.2Z"/><path d="M635.8 364.8 633 362 626.4 368.6 623.8 366 621 368.8 626.4 374.2Z"/><path d="M635.8 380.6 633 377.8 626.4 384.4 623.8 381.8 621 384.6 626.4 390Z"/></g></svg>