<svg width="96" height="96" xmlns="http://www.w3.org/2000/svg" xmlns:xlink="http://www.w3.org/1999/xlink" xml:space="preserve" overflow="hidden"><defs><clipPath id="clip0"><rect x="592" y="312" width="96" height="96"/></clipPath></defs><g clip-path="url(#clip0)" transform="translate(-592 -312)"><path d="M625 342.8C625 347.771 620.971 351.8 616 351.8 611.029 351.8 607 347.771 607 342.8 607 337.829 611.029 333.8 616 333.8 620.971 333.8 625 337.829 625 342.8Z"/><path d="M673 342.8C673 347.771 668.971 351.8 664 351.8 659.029 351.8 655 347.771 655 342.8 655 337.829 659.029 333.8 664 333.8 668.971 333.8 673 337.829 673 342.8Z"/><path d="M658 386.2 658 377.2C658 375.8 657.4 374.4 656.2 373.6 653.8 371.6 650.6 370.2 647.4 369.4 645.2 368.8 642.6 368.2 640 368.2 637.6 368.2 635 368.6 632.6 369.4 629.4 370.2 626.4 371.8 623.8 373.6 622.6 374.6 622 375.8 622 377.2L622 386.2 658 386.2Z"/><path d="M649 356.8C649 361.771 644.971 365.8 640 365.8 635.029 365.8 631 361.771 631 356.8 631 351.829 635.029 347.8 640 347.8 644.971 347.8 649 351.829 649 356.8Z"/><path d="M680.2 359.6C677.8 357.6 674.6 356.2 671.4 355.4 669.2 354.8 666.6 354.2 664 354.2 661.6 354.2 659 354.6 656.6 355.4 655.4 355.8 654.2 356.2 653 356.8L653 357C653 360.4 651.6 363.6 649.4 365.8 653.2 367 656.2 368.6 658.6 370.4 659.2 371 659.8 371.4 660.2 372.2L682 372.2 682 363.2C682 361.8 681.4 360.4 680.2 359.6Z"/><path d="M621.4 370.4 621.4 370.4C624.2 368.4 627.4 366.8 630.6 365.8 628.4 363.4 627 360.4 627 357 627 356.8 627 356.8 627 356.6 625.8 356.2 624.6 355.6 623.4 355.4 621.2 354.8 618.6 354.2 616 354.2 613.6 354.2 611 354.6 608.6 355.4 605.4 356.4 602.4 357.8 599.8 359.6 598.6 360.4 598 361.8 598 363.2L598 372.2 619.6 372.2C620.2 371.4 620.6 371 621.4 370.4Z"/></g></svg>