<?xml version="1.0" encoding="UTF-8" standalone="no"?>
<svg
   xmlns:dc="http://purl.org/dc/elements/1.1/"
   xmlns:cc="http://creativecommons.org/ns#"
   xmlns:rdf="http://www.w3.org/1999/02/22-rdf-syntax-ns#"
   xmlns:svg="http://www.w3.org/2000/svg"
   xmlns="http://www.w3.org/2000/svg"
   xmlns:sodipodi="http://sodipodi.sourceforge.net/DTD/sodipodi-0.dtd"
   xmlns:inkscape="http://www.inkscape.org/namespaces/inkscape"
   width="51.327522mm"
   height="34.605053mm"
   viewBox="0 0 51.327524 34.605052"
   version="1.1"
   id="svg8"
   inkscape:version="1.0 (4035a4fb49, 2020-05-01)"
   sodipodi:docname="sharp-archimedes.svg">
  <defs
     id="defs2">
    <inkscape:path-effect
       hide_knots="false"
       only_selected="true"
       apply_with_radius="true"
       apply_no_radius="true"
       use_knot_distance="true"
       flexible="false"
       chamfer_steps="1"
       radius="4"
       mode="F"
       method="auto"
       unit="px"
       satellites_param="F,0,0,1,0,2.8642872,0,1 @ F,0,0,1,0,0,0,1 @ F,0,0,1,0,0,0,1 @ F,0,0,1,0,0,0,1 @ F,0,0,1,0,0,0,1 @ F,0,0,1,0,0,0,1 @ F,0,0,1,0,0,0,1 @ F,0,0,1,0,0,0,1"
       lpeversion="1"
       is_visible="true"
       id="path-effect896"
       effect="fillet_chamfer" />
    <clipPath
       clipPathUnits="userSpaceOnUse"
       id="clipPath925">
      <path
         d="M 0,1080 H 1920 V 0 H 0 Z"
         id="path923" />
    </clipPath>
  </defs>
  <sodipodi:namedview
     inkscape:snap-bbox="true"
     inkscape:snap-global="true"
     id="base"
     pagecolor="#ffffff"
     bordercolor="#666666"
     borderopacity="1.0"
     inkscape:pageopacity="0.0"
     inkscape:pageshadow="2"
     inkscape:zoom="1.4142136"
     inkscape:cx="97.311138"
     inkscape:cy="169.91377"
     inkscape:document-units="mm"
     inkscape:current-layer="layer1"
     inkscape:document-rotation="0"
     showgrid="false"
     inkscape:snap-smooth-nodes="true"
     inkscape:snap-intersection-paths="true"
     inkscape:window-width="1620"
     inkscape:window-height="992"
     inkscape:window-x="-8"
     inkscape:window-y="-8"
     inkscape:window-maximized="1" />
  <metadata
     id="metadata5">
    <rdf:RDF>
      <cc:Work
         rdf:about="">
        <dc:format>image/svg+xml</dc:format>
        <dc:type
           rdf:resource="http://purl.org/dc/dcmitype/StillImage" />
        <dc:title></dc:title>
      </cc:Work>
    </rdf:RDF>
  </metadata>
  <g
     transform="translate(9.5163909,-77.925604)"
     inkscape:label="Layer 1"
     inkscape:groupmode="layer"
     id="layer1">
    <g
       transform="matrix(0.13882265,0,0,0.14048417,-1.2068404,78.608401)"
       id="g1589">
      <g
         id="g919"
         transform="matrix(0.35277777,0,0,-0.35277777,-504.30019,310.4717)">
        <g
           clip-path="url(#clipPath925)"
           id="g921">
          <g
             transform="translate(1387.7972,431.8915)"
             id="g927">
            <path
               id="path929"
               style="fill:#48ace1;fill-opacity:1;fill-rule:nonzero;stroke:none"
               d="m 0,0 c -12.739,12.521 -19.73,29.755 -19.314,47.613 l 2.439,200.463 c -0.138,17.84 7.118,34.94 20.044,47.236 12.387,12.402 29.351,19.129 46.871,18.585 l 199.681,-1.645 c 17.863,0.121 34.979,-7.153 47.289,-20.096 12.384,-12.373 19.093,-29.322 18.532,-46.819 L 313.897,45.656 C 314.132,28.138 307.108,11.305 294.491,-0.85 282.01,-13.585 264.809,-20.578 246.983,-20.165 L 46.507,-19.302 C 29.003,-19.573 12.167,-12.586 0,0" />
          </g>
          <g
             transform="translate(1507.9819,692.5367)"
             id="g931">
            <path
               id="path933"
               style="fill:#ffffff;fill-opacity:1;fill-rule:nonzero;stroke:none"
               d="m 0,0 -92.6,-77.497 c -1.465,-1.226 -3.132,-2.515 -4.999,-3.852 -1.811,-1.318 -3.527,-2.759 -5.138,-4.315 -1.528,-1.462 -2.889,-3.089 -4.058,-4.851 -1.157,-1.783 -1.844,-3.829 -2,-5.949 -0.214,-2.145 0.099,-4.309 0.91,-6.306 0.815,-1.986 1.866,-3.868 3.129,-5.604 1.311,-1.815 2.747,-3.537 4.297,-5.153 1.607,-1.646 3.02,-3.209 4.239,-4.69 l 77.481,-92.599 c 2.478,-3.014 6.09,-4.872 9.984,-5.135 3.815,-0.371 7.614,0.853 10.495,3.38 l 35.488,29.604 c -1.242,1.029 -2.388,2.17 -3.422,3.409 l -47.511,57.176 c -4.304,5.006 -6.352,11.566 -5.659,18.132 0.372,6.381 3.407,12.312 8.364,16.347 4.967,4.035 9.938,8.135 14.916,12.3 l 42.363,35.447 c 1.278,1.093 2.655,2.065 4.114,2.902 L 20.565,-1.714 C 18.174,1.283 14.651,3.157 10.83,3.465 6.894,3.874 2.967,2.618 0,0" />
          </g>
          <g
             transform="translate(1541.4479,702.9069)"
             id="g935">
            <path
               id="path937"
               style="fill:#48ace1;fill-opacity:1;fill-rule:nonzero;stroke:none"
               d="m 0,0 c 9.129,0.418 18.023,-2.958 24.576,-9.328 l 76.281,-70.845 c 6.917,-6.234 10.948,-15.052 11.135,-24.363 0.416,-9.117 -2.961,-17.999 -9.329,-24.537 l -70.845,-76.281 c -6.069,-6.825 -14.692,-10.834 -23.823,-11.076 -9.281,-0.513 -18.361,2.843 -25.077,9.27 l -76.862,70.824 c -6.833,6.05 -10.856,14.659 -11.114,23.782 -0.5,9.299 2.869,18.39 9.308,25.118 l 71.426,76.302 C -18.105,-4.219 -9.299,-0.188 0,0" />
          </g>
          <g
             transform="translate(1565.4761,702.9069)"
             id="g939">
            <path
               id="path941"
               style="fill:#ffffff;fill-opacity:1;fill-rule:nonzero;stroke:none"
               d="m 0,0 c 9.129,0.418 18.023,-2.958 24.576,-9.328 l 76.281,-70.845 c 6.917,-6.234 10.948,-15.052 11.135,-24.363 0.416,-9.117 -2.961,-17.999 -9.329,-24.537 l -70.845,-76.281 c -6.069,-6.825 -14.692,-10.834 -23.823,-11.076 -9.281,-0.513 -18.361,2.843 -25.077,9.27 l -76.862,70.824 c -6.833,6.05 -10.856,14.659 -11.114,23.782 -0.5,9.299 2.869,18.39 9.308,25.118 l 71.426,76.302 C -18.105,-4.219 -9.299,-0.188 0,0" />
          </g>
          <g
             transform="translate(1579.813,512.2006)"
             id="g943">
            <path
               id="path945"
               style="fill:#48ace1;fill-opacity:1;fill-rule:nonzero;stroke:none"
               d="m 0,0 66.6,66.613 c 1.054,1.054 2.26,2.171 3.619,3.339 1.315,1.148 2.55,2.387 3.694,3.707 1.086,1.242 2.031,2.6 2.818,4.05 0.776,1.465 1.169,3.103 1.143,4.761 0.018,1.681 -0.374,3.341 -1.143,4.837 -0.77,1.487 -1.716,2.877 -2.818,4.138 -1.144,1.32 -2.379,2.559 -3.694,3.707 -1.363,1.168 -2.569,2.285 -3.619,3.352 L 0,165.104 c -2.134,2.171 -5.069,3.366 -8.112,3.301 -2.991,0.024 -5.858,-1.189 -7.922,-3.352 l -25.531,-25.454 c 1.037,-0.714 2.006,-1.521 2.895,-2.412 L 2.196,96.041 C 5.887,92.448 7.931,87.492 7.846,82.343 7.998,77.359 6.049,72.54 2.476,69.063 -1.105,65.585 -4.685,62.055 -8.265,58.475 L -38.734,28.006 c -0.917,-0.938 -1.92,-1.788 -2.996,-2.539 l 25.632,-25.556 c 2.065,-2.163 4.932,-3.376 7.922,-3.351 C -5.09,-3.486 -2.125,-2.239 0,0" />
          </g>
        </g>
      </g>
      <text
         id="text949"
         style="font-variant:normal;font-weight:bold;font-stretch:normal;font-size:18.3199px;font-family:'Segoe UI';-inkscape-font-specification:SegoeUI-Bold;writing-mode:lr-tb;fill:#48ace1;fill-opacity:1;fill-rule:nonzero;stroke:none;stroke-width:0.352679"
         transform="scale(0.99971987,1.0002802)"
         x="-39.760189"
         y="183.97722"><tspan
           id="tspan947"
           sodipodi:role="line"
           y="183.97722"
           x="-39.760189 -26.881315 -13.636061 -2.9006195 10.985855 28.517975 41.396843 52.132294 57.93969 71.826149"
           style="stroke-width:0.352679">AUTOMATION</tspan></text>
      <text
         id="text953"
         style="font-variant:normal;font-weight:normal;font-stretch:normal;font-size:18.3199px;font-family:'Segoe UI';-inkscape-font-specification:SegoeUI;writing-mode:lr-tb;fill:#48ace1;fill-opacity:1;fill-rule:nonzero;stroke:none;stroke-width:0.352679"
         transform="scale(0.99971987,1.0002802)"
         x="89.79792"
         y="183.92227"><tspan
           id="tspan951"
           sodipodi:role="line"
           y="183.92227"
           x="89.79792 100.42345 105.25988"
           style="stroke-width:0.352679">KIT</tspan></text>
    </g>
    <text
       transform="scale(1.0231312,0.97739176)"
       id="text1597"
       y="109.53468"
       x="26.288074"
       style="font-style:normal;font-weight:normal;font-size:2.82222px;line-height:1.25;font-family:sans-serif;fill:#000000;fill-opacity:1;stroke:none;stroke-width:0.0865003"
       xml:space="preserve"><tspan
         id="tspan1599"
         style="font-style:normal;font-variant:normal;font-weight:normal;font-stretch:normal;font-size:2.82222px;font-family:'Segoe UI';-inkscape-font-specification:'Segoe UI';text-align:center;text-anchor:middle;stroke-width:0.0865003"
         y="109.53468"
         x="26.288074"
         sodipodi:role="line">Sharp</tspan><tspan
         id="tspan4319"
         style="font-style:normal;font-variant:normal;font-weight:normal;font-stretch:normal;font-size:2.82222px;font-family:'Segoe UI';-inkscape-font-specification:'Segoe UI';text-align:center;text-anchor:middle;stroke-width:0.0865003"
         y="113.09513"
         x="26.288074"
         sodipodi:role="line">Archimedes</tspan></text>
    <rect
       ry="0.95283085"
       y="78.134979"
       x="-9.3070154"
       height="34.186302"
       width="50.908772"
       id="rect1603"
       style="fill:none;fill-opacity:1;stroke:#48ace1;stroke-width:0.418751;stroke-miterlimit:4;stroke-dasharray:none;stroke-opacity:1" />
    <g
       transform="matrix(0.52766093,0,0,0.57335973,26.263196,46.790125)"
       id="g3083">
      <path
         d="m 18.759328,79.125448 c 0,2.815167 -2.281767,5.097283 -5.097285,5.097283 -2.815167,0 -5.0972874,-2.282116 -5.0972874,-5.097283 0,-2.815519 2.2821204,-5.097639 5.0972874,-5.097639 2.815518,0 5.097285,2.28212 5.097285,5.097639 z"
         style="fill:#fbc0a0;fill-opacity:1;fill-rule:nonzero;stroke:none;stroke-width:0.352777"
         id="path1919" />
      <path
         d="m 16.30223,79.125448 c 0,1.457678 -1.182158,2.640189 -2.640187,2.640189 -1.458032,0 -2.64019,-1.182511 -2.64019,-2.640189 0,-1.45803 1.182158,-2.640541 2.64019,-2.640541 1.458029,0 2.640187,1.182511 2.640187,2.640541 z"
         style="fill:#f0947d;fill-opacity:1;fill-rule:nonzero;stroke:none;stroke-width:0.352777"
         id="path1921" />
      <path
         d="m -5.8948996,79.125448 c 0,2.815167 -2.2821193,5.097283 -5.0976384,5.097283 -2.815167,0 -5.097286,-2.282116 -5.097286,-5.097283 0,-2.815519 2.282119,-5.097639 5.097286,-5.097639 2.8155191,0 5.0976384,2.28212 5.0976384,5.097639 z"
         style="fill:#fbc0a0;fill-opacity:1;fill-rule:nonzero;stroke:none;stroke-width:0.352777"
         id="path1923" />
      <path
         d="m -8.3519966,79.125448 c 0,1.457678 -1.1825113,2.640189 -2.6405414,2.640189 -1.457678,0 -2.640189,-1.182511 -2.640189,-2.640189 0,-1.45803 1.182511,-2.640541 2.640189,-2.640541 1.4580301,0 2.6405414,1.182511 2.6405414,2.640541 z"
         style="fill:#f0947d;fill-opacity:1;fill-rule:nonzero;stroke:none;stroke-width:0.352777"
         id="path1925" />
      <path
         d="M -4.5624579,67.443564 H 7.2309026 c 3.6364334,0 6.5634314,2.926998 6.5634314,6.562373 v 17.279054 c 0,3.63679 -2.926998,6.56379 -6.5634314,6.56379 H -4.5624579 c -3.635375,0 -6.5623721,-2.927 -6.5623721,-6.56379 V 74.005937 c 0,-3.635375 2.9269971,-6.562373 6.5623721,-6.562373 z"
         style="fill:#8d8d8d;fill-opacity:1;fill-rule:nonzero;stroke:none;stroke-width:0.352777"
         id="path1927" />
      <path
         d="m 1.3342225,60.995845 c -5.8042527,0 -10.5103081,4.706055 -10.5103081,10.510309 v 8.605661 c 0,2.5908 2.0242387,4.615036 4.6136277,4.615036 H 7.2309026 c 2.590448,0 4.6150404,-2.024236 4.6150404,-4.615036 v -8.605661 c 0,-5.804254 -4.7060564,-10.510309 -10.5117205,-10.510309 z"
         style="fill:#fbc0a0;fill-opacity:1;fill-rule:nonzero;stroke:none;stroke-width:0.352777"
         id="path1929" />
      <path
         d="m -1.4343775,77.731976 c 0,1.190625 -0.9644944,2.154061 -2.1537084,2.154061 -1.1892137,0 -2.1526497,-0.964847 -2.1526497,-2.154061 0,-1.189214 0.963436,-2.152297 2.1526497,-2.152297 1.189214,0 2.1537084,0.963083 2.1537084,2.152297 z"
         style="fill:#1a1a1a;fill-opacity:1;fill-rule:nonzero;stroke:none;stroke-width:0.352777"
         id="path1931" />
      <path
         d="m 8.4102386,77.731976 c 0,1.190625 -0.964494,2.154061 -2.153708,2.154061 -1.189214,0 -2.15265,-0.964847 -2.15265,-2.154061 0,-1.189214 0.963436,-2.152297 2.15265,-2.152297 1.189214,0 2.153708,0.963083 2.153708,2.152297 z"
         style="fill:#1a1a1a;fill-opacity:1;fill-rule:nonzero;stroke:none;stroke-width:0.352777"
         id="path1933" />
      <path
         d="m -2.7833996,87.802721 c -2.465211,0 -4.4647556,-1.99813 -4.4647556,-4.46475 H 9.9166006 c 0,2.46662 -1.998134,4.46475 -4.464756,4.46475 -1.852083,0 -3.4424055,-1.12853 -4.1176221,-2.73544 -0.67521673,1.60691 -2.26412773,2.73544 -4.1176221,2.73544 z"
         style="fill:#434343;fill-opacity:1;fill-rule:nonzero;stroke:none;stroke-width:0.352777"
         id="path1935" />
      <path
         d="m 1.3342225,74.722429 c 1.02235,0 1.846439,0.822678 1.846439,1.846439 v 6.022269 c 0,1.022354 -0.824089,1.845024 -1.846439,1.845024 -1.02270273,0 -1.84538043,-0.82267 -1.84538043,-1.845024 v -6.022269 c 0,-1.023761 0.8226777,-1.846439 1.84538043,-1.846439 z"
         style="fill:#f0947d;fill-opacity:1;fill-rule:nonzero;stroke:none;stroke-width:0.352777"
         id="path1937" />
      <path
         d="m -5.1385439,73.376229 h 3.1019747 c 0.3266723,0 0.5898446,0.263172 0.5898446,0.589844 0,0.32632 -0.2631723,0.589492 -0.5898446,0.589492 h -3.1019747 c -0.3266723,0 -0.5898447,-0.263172 -0.5898447,-0.589492 0,-0.326672 0.2631724,-0.589844 0.5898447,-0.589844 z"
         style="fill:#8d8d8d;fill-opacity:1;fill-rule:nonzero;stroke:none;stroke-width:0.352777"
         id="path1939" />
      <path
         d="m 4.7060726,73.376229 h 3.101975 c 0.326672,0 0.589844,0.263172 0.589844,0.589844 0,0.32632 -0.263172,0.589492 -0.589844,0.589492 h -3.101975 c -0.32632,0 -0.589845,-0.263172 -0.589845,-0.589492 0,-0.326672 0.263525,-0.589844 0.589845,-0.589844 z"
         style="fill:#8d8d8d;fill-opacity:1;fill-rule:nonzero;stroke:none;stroke-width:0.352777"
         id="path1941" />
      <path
         d="m -1.2703359,62.511731 c -0.068792,0.0039 -0.137936,0.01658 -0.2024943,0.03845 -2.446161,0.789516 -4.4400611,2.577041 -5.50545,4.885266 -0.187325,0.386998 -0.02046,0.853018 0.3693583,1.033287 0.3912306,0.180623 0.854428,0.0056 1.0279946,-0.389819 0.8847667,-1.918051 2.5481138,-3.409242 4.5794081,-4.063998 0.86924437,-0.265642 0.63923327,-1.554339 -0.2688167,-1.503186 z"
         style="fill:#fde4d6;fill-opacity:1;fill-rule:nonzero;stroke:none;stroke-width:0.352777"
         id="path1943" />
      <path
         d="m -12.811461,70.702879 v 3.888669 c 0,1.453797 1.169812,2.62502 2.62502,2.62502 h 2.6253721 v -6.513689 c 0,-1.455208 -1.1712223,-2.626783 -2.6253721,-2.626783 -1.455208,0 -2.62502,1.171575 -2.62502,2.626783 z"
         style="fill:#8d8d8d;fill-opacity:1;fill-rule:nonzero;stroke:none;stroke-width:0.352777"
         id="path1945" />
      <path
         d="m 15.480963,70.702879 v 3.888669 c 0,1.453797 -1.17122,2.62502 -2.625018,2.62502 h -2.625372 v -6.513689 c 0,-1.455208 1.170163,-2.626783 2.625372,-2.626783 1.455208,0 2.625018,1.171575 2.625018,2.626783 z"
         style="fill:#8d8d8d;fill-opacity:1;fill-rule:nonzero;stroke:none;stroke-width:0.352777"
         id="path1947" />
    </g>
  </g>
</svg>
