<?xml version="1.0" encoding="UTF-8" standalone="no"?>
<svg
   xmlns:dc="http://purl.org/dc/elements/1.1/"
   xmlns:cc="http://creativecommons.org/ns#"
   xmlns:rdf="http://www.w3.org/1999/02/22-rdf-syntax-ns#"
   xmlns:svg="http://www.w3.org/2000/svg"
   xmlns="http://www.w3.org/2000/svg"
   xmlns:sodipodi="http://sodipodi.sourceforge.net/DTD/sodipodi-0.dtd"
   xmlns:inkscape="http://www.inkscape.org/namespaces/inkscape"
   sodipodi:docname="upbeat-dhawan.svg"
   inkscape:version="1.0 (4035a4fb49, 2020-05-01)"
   id="svg8"
   version="1.1"
   viewBox="0 0 51.327524 34.605052"
   height="34.605053mm"
   width="51.327522mm">
  <defs
     id="defs2">
    <inkscape:path-effect
       effect="fillet_chamfer"
       id="path-effect896"
       is_visible="true"
       lpeversion="1"
       satellites_param="F,0,0,1,0,2.8642872,0,1 @ F,0,0,1,0,0,0,1 @ F,0,0,1,0,0,0,1 @ F,0,0,1,0,0,0,1 @ F,0,0,1,0,0,0,1 @ F,0,0,1,0,0,0,1 @ F,0,0,1,0,0,0,1 @ F,0,0,1,0,0,0,1"
       unit="px"
       method="auto"
       mode="F"
       radius="4"
       chamfer_steps="1"
       flexible="false"
       use_knot_distance="true"
       apply_no_radius="true"
       apply_with_radius="true"
       only_selected="true"
       hide_knots="false" />
    <clipPath
       id="clipPath925"
       clipPathUnits="userSpaceOnUse">
      <path
         id="path923"
         d="M 0,1080 H 1920 V 0 H 0 Z" />
    </clipPath>
  </defs>
  <sodipodi:namedview
     inkscape:window-maximized="1"
     inkscape:window-y="-8"
     inkscape:window-x="-8"
     inkscape:window-height="992"
     inkscape:window-width="1620"
     inkscape:snap-intersection-paths="true"
     inkscape:snap-smooth-nodes="true"
     showgrid="false"
     inkscape:document-rotation="0"
     inkscape:current-layer="layer1"
     inkscape:document-units="mm"
     inkscape:cy="96.343502"
     inkscape:cx="31.766018"
     inkscape:zoom="2.0000001"
     inkscape:pageshadow="2"
     inkscape:pageopacity="0.0"
     borderopacity="1.0"
     bordercolor="#666666"
     pagecolor="#ffffff"
     id="base"
     inkscape:snap-global="true"
     inkscape:snap-bbox="true" />
  <metadata
     id="metadata5">
    <rdf:RDF>
      <cc:Work
         rdf:about="">
        <dc:format>image/svg+xml</dc:format>
        <dc:type
           rdf:resource="http://purl.org/dc/dcmitype/StillImage" />
        <dc:title />
      </cc:Work>
    </rdf:RDF>
  </metadata>
  <g
     id="layer1"
     inkscape:groupmode="layer"
     inkscape:label="Layer 1"
     transform="translate(9.5163909,-77.925604)">
    <rect
       style="fill:#ffffff;fill-opacity:1;stroke:#48ace1;stroke-width:0.418751;stroke-miterlimit:4;stroke-dasharray:none;stroke-opacity:1"
       id="rect1603"
       width="50.908772"
       height="34.186302"
       x="-9.3070154"
       y="78.134979"
       ry="0.95283085" />
    <g
       id="g1589"
       transform="matrix(0.13882265,0,0,0.14048417,-1.2068404,78.608401)">
      <g
         transform="matrix(0.35277777,0,0,-0.35277777,-504.30019,310.4717)"
         id="g919">
        <g
           id="g921"
           clip-path="url(#clipPath925)">
          <g
             id="g927"
             transform="translate(1387.7972,431.8915)">
            <path
               d="m 0,0 c -12.739,12.521 -19.73,29.755 -19.314,47.613 l 2.439,200.463 c -0.138,17.84 7.118,34.94 20.044,47.236 12.387,12.402 29.351,19.129 46.871,18.585 l 199.681,-1.645 c 17.863,0.121 34.979,-7.153 47.289,-20.096 12.384,-12.373 19.093,-29.322 18.532,-46.819 L 313.897,45.656 C 314.132,28.138 307.108,11.305 294.491,-0.85 282.01,-13.585 264.809,-20.578 246.983,-20.165 L 46.507,-19.302 C 29.003,-19.573 12.167,-12.586 0,0"
               style="fill:#48ace1;fill-opacity:1;fill-rule:nonzero;stroke:none"
               id="path929" />
          </g>
          <g
             id="g931"
             transform="translate(1507.9819,692.5367)">
            <path
               d="m 0,0 -92.6,-77.497 c -1.465,-1.226 -3.132,-2.515 -4.999,-3.852 -1.811,-1.318 -3.527,-2.759 -5.138,-4.315 -1.528,-1.462 -2.889,-3.089 -4.058,-4.851 -1.157,-1.783 -1.844,-3.829 -2,-5.949 -0.214,-2.145 0.099,-4.309 0.91,-6.306 0.815,-1.986 1.866,-3.868 3.129,-5.604 1.311,-1.815 2.747,-3.537 4.297,-5.153 1.607,-1.646 3.02,-3.209 4.239,-4.69 l 77.481,-92.599 c 2.478,-3.014 6.09,-4.872 9.984,-5.135 3.815,-0.371 7.614,0.853 10.495,3.38 l 35.488,29.604 c -1.242,1.029 -2.388,2.17 -3.422,3.409 l -47.511,57.176 c -4.304,5.006 -6.352,11.566 -5.659,18.132 0.372,6.381 3.407,12.312 8.364,16.347 4.967,4.035 9.938,8.135 14.916,12.3 l 42.363,35.447 c 1.278,1.093 2.655,2.065 4.114,2.902 L 20.565,-1.714 C 18.174,1.283 14.651,3.157 10.83,3.465 6.894,3.874 2.967,2.618 0,0"
               style="fill:#ffffff;fill-opacity:1;fill-rule:nonzero;stroke:none"
               id="path933" />
          </g>
          <g
             id="g935"
             transform="translate(1541.4479,702.9069)">
            <path
               d="m 0,0 c 9.129,0.418 18.023,-2.958 24.576,-9.328 l 76.281,-70.845 c 6.917,-6.234 10.948,-15.052 11.135,-24.363 0.416,-9.117 -2.961,-17.999 -9.329,-24.537 l -70.845,-76.281 c -6.069,-6.825 -14.692,-10.834 -23.823,-11.076 -9.281,-0.513 -18.361,2.843 -25.077,9.27 l -76.862,70.824 c -6.833,6.05 -10.856,14.659 -11.114,23.782 -0.5,9.299 2.869,18.39 9.308,25.118 l 71.426,76.302 C -18.105,-4.219 -9.299,-0.188 0,0"
               style="fill:#48ace1;fill-opacity:1;fill-rule:nonzero;stroke:none"
               id="path937" />
          </g>
          <g
             id="g939"
             transform="translate(1565.4761,702.9069)">
            <path
               d="m 0,0 c 9.129,0.418 18.023,-2.958 24.576,-9.328 l 76.281,-70.845 c 6.917,-6.234 10.948,-15.052 11.135,-24.363 0.416,-9.117 -2.961,-17.999 -9.329,-24.537 l -70.845,-76.281 c -6.069,-6.825 -14.692,-10.834 -23.823,-11.076 -9.281,-0.513 -18.361,2.843 -25.077,9.27 l -76.862,70.824 c -6.833,6.05 -10.856,14.659 -11.114,23.782 -0.5,9.299 2.869,18.39 9.308,25.118 l 71.426,76.302 C -18.105,-4.219 -9.299,-0.188 0,0"
               style="fill:#ffffff;fill-opacity:1;fill-rule:nonzero;stroke:none"
               id="path941" />
          </g>
          <g
             id="g943"
             transform="translate(1579.813,512.2006)">
            <path
               d="m 0,0 66.6,66.613 c 1.054,1.054 2.26,2.171 3.619,3.339 1.315,1.148 2.55,2.387 3.694,3.707 1.086,1.242 2.031,2.6 2.818,4.05 0.776,1.465 1.169,3.103 1.143,4.761 0.018,1.681 -0.374,3.341 -1.143,4.837 -0.77,1.487 -1.716,2.877 -2.818,4.138 -1.144,1.32 -2.379,2.559 -3.694,3.707 -1.363,1.168 -2.569,2.285 -3.619,3.352 L 0,165.104 c -2.134,2.171 -5.069,3.366 -8.112,3.301 -2.991,0.024 -5.858,-1.189 -7.922,-3.352 l -25.531,-25.454 c 1.037,-0.714 2.006,-1.521 2.895,-2.412 L 2.196,96.041 C 5.887,92.448 7.931,87.492 7.846,82.343 7.998,77.359 6.049,72.54 2.476,69.063 -1.105,65.585 -4.685,62.055 -8.265,58.475 L -38.734,28.006 c -0.917,-0.938 -1.92,-1.788 -2.996,-2.539 l 25.632,-25.556 c 2.065,-2.163 4.932,-3.376 7.922,-3.351 C -5.09,-3.486 -2.125,-2.239 0,0"
               style="fill:#48ace1;fill-opacity:1;fill-rule:nonzero;stroke:none"
               id="path945" />
          </g>
        </g>
      </g>
      <text
         y="183.97722"
         x="-39.760189"
         transform="scale(0.99971987,1.0002802)"
         style="font-variant:normal;font-weight:bold;font-stretch:normal;font-size:18.3199px;font-family:'Segoe UI';-inkscape-font-specification:SegoeUI-Bold;writing-mode:lr-tb;fill:#48ace1;fill-opacity:1;fill-rule:nonzero;stroke:none;stroke-width:0.352679"
         id="text949"><tspan
           style="stroke-width:0.352679"
           x="-39.760189 -26.881315 -13.636061 -2.9006195 10.985855 28.517975 41.396843 52.132294 57.93969 71.826149"
           y="183.97722"
           sodipodi:role="line"
           id="tspan947">AUTOMATION</tspan></text>
      <text
         y="183.92227"
         x="89.79792"
         transform="scale(0.99971987,1.0002802)"
         style="font-variant:normal;font-weight:normal;font-stretch:normal;font-size:18.3199px;font-family:'Segoe UI';-inkscape-font-specification:SegoeUI;writing-mode:lr-tb;fill:#48ace1;fill-opacity:1;fill-rule:nonzero;stroke:none;stroke-width:0.352679"
         id="text953"><tspan
           style="stroke-width:0.352679"
           x="89.79792 100.42345 105.25988"
           y="183.92227"
           sodipodi:role="line"
           id="tspan951">KIT</tspan></text>
    </g>
    <text
       xml:space="preserve"
       style="font-style:normal;font-weight:normal;font-size:2.82222px;line-height:1.25;font-family:sans-serif;fill:#000000;fill-opacity:1;stroke:none;stroke-width:0.0865003"
       x="25.926992"
       y="108.73418"
       id="text1597"
       transform="scale(1.0231312,0.97739176)"><tspan
         sodipodi:role="line"
         x="25.926992"
         y="108.73418"
         style="font-style:normal;font-variant:normal;font-weight:normal;font-stretch:normal;font-size:2.82222px;font-family:'Segoe UI';-inkscape-font-specification:'Segoe UI';text-align:center;text-anchor:middle;stroke-width:0.0865003"
         id="tspan1599">Upbeat</tspan><tspan
         id="tspan4323"
         sodipodi:role="line"
         x="25.926992"
         y="112.29462"
         style="font-style:normal;font-variant:normal;font-weight:normal;font-stretch:normal;font-size:2.82222px;font-family:'Segoe UI';-inkscape-font-specification:'Segoe UI';text-align:center;text-anchor:middle;stroke-width:0.0865003">Dhawan</tspan></text>
    <path
       d="m 33.4432,100.06689 c -1.123649,0 -2.02774,-0.879501 -2.02774,-1.972332 V 85.229445 h 2.02774 c 1.123036,0 2.027948,0.879295 2.027948,1.972326 v 12.865119 z"
       style="fill:#7b3838;fill-opacity:1;fill-rule:nonzero;stroke:none;stroke-width:0.202361"
       id="path1681" />
    <path
       d="m 34.016311,84.159964 c 0,0.89945 -0.367914,1.763178 -1.021872,2.399399 -0.654779,0.63682 -1.542249,0.994644 -2.467886,0.994644 -0.925841,0 -1.813927,-0.357824 -2.46809,-0.994644 -0.654779,-0.636221 -1.022694,-1.499949 -1.022694,-2.399399 0,-1.874936 1.562973,-3.395041 3.490784,-3.395041 0.925637,0 1.813107,0.357824 2.467886,0.994643 0.653958,0.636222 1.021872,1.499949 1.021872,2.400398 z"
       style="fill:#4d2525;fill-opacity:1;fill-rule:nonzero;stroke:none;stroke-width:0.202361"
       id="path1683" />
    <path
       d="m 36.095559,92.493301 c 0,1.445467 -1.204703,2.616331 -2.689909,2.616331 -1.485204,0 -2.690112,-1.170864 -2.690112,-2.616331 0,-1.444469 1.204908,-2.615331 2.690112,-2.615331 1.485206,0 2.689909,1.170862 2.689909,2.615331 z"
       style="fill:#eba268;fill-opacity:1;fill-rule:nonzero;stroke:none;stroke-width:0.202361"
       id="path1685" />
    <path
       d="m 34.798723,92.493301 c 0,0.748378 -0.623591,1.354864 -1.393073,1.354864 -0.769483,0 -1.393072,-0.606486 -1.393072,-1.354864 0,-0.748378 0.623589,-1.354863 1.393072,-1.354863 0.769482,0 1.393073,0.606485 1.393073,1.354863 z"
       style="fill:#cf776a;fill-opacity:1;fill-rule:nonzero;stroke:none;stroke-width:0.202361"
       id="path1687" />
    <path
       d="m 23.086578,92.493301 c 0,1.445467 -1.204703,2.616331 -2.690113,2.616331 -1.485204,0 -2.689906,-1.170864 -2.689906,-2.616331 0,-1.444469 1.204702,-2.615331 2.689906,-2.615331 1.48541,0 2.690113,1.170862 2.690113,2.615331 z"
       style="fill:#eba268;fill-opacity:1;fill-rule:nonzero;stroke:none;stroke-width:0.202361"
       id="path1689" />
    <path
       d="m 21.789537,92.493301 c 0,0.748378 -0.623589,1.354864 -1.393072,1.354864 -0.769482,0 -1.393071,-0.606486 -1.393071,-1.354864 0,-0.748378 0.623589,-1.354863 1.393071,-1.354863 0.769483,0 1.393072,0.606485 1.393072,1.354863 z"
       style="fill:#cf776a;fill-opacity:1;fill-rule:nonzero;stroke:none;stroke-width:0.202361"
       id="path1691" />
    <path
       d="m 23.789577,84.524773 c -1.918167,0 -3.462673,1.502144 -3.462673,3.368499 v 7.607708 c 0,3.530552 2.943118,6.39394 6.574257,6.39394 3.630933,0 6.574256,-2.86259 6.574256,-6.39394 v -7.607708 c 0,-1.866355 -1.544712,-3.368499 -3.462673,-3.368499 z"
       style="fill:#eba268;fill-opacity:1;fill-rule:nonzero;stroke:none;stroke-width:0.202361"
       id="path1693" />
    <path
       d="m 25.439964,91.267159 c 0,0.610277 -0.508269,1.104606 -1.135962,1.104606 -0.627488,0 -1.136578,-0.494329 -1.136578,-1.104606 0,-0.610477 0.50909,-1.105404 1.136578,-1.105404 0.627693,0 1.135962,0.494927 1.135962,1.105404 z"
       style="fill:#1a1a1a;fill-opacity:1;fill-rule:nonzero;stroke:none;stroke-width:0.202361"
       id="path1695" />
    <path
       d="m 30.634691,91.267159 c 0,0.610277 -0.50909,1.104606 -1.136577,1.104606 -0.627693,0 -1.135757,-0.494329 -1.135757,-1.104606 0,-0.610477 0.508064,-1.105404 1.135757,-1.105404 0.627487,0 1.136577,0.494927 1.136577,1.105404 z"
       style="fill:#1a1a1a;fill-opacity:1;fill-rule:nonzero;stroke:none;stroke-width:0.202361"
       id="path1697" />
    <path
       d="m 26.901161,91.030871 c 0.539458,0 0.973857,0.422485 0.973857,0.947945 v 2.420553 c 0,0.524662 -0.434399,0.947145 -0.973857,0.947145 -0.539459,0 -0.973858,-0.422483 -0.973858,-0.947145 v -2.420553 c 0,-0.52546 0.434399,-0.947945 0.973858,-0.947945 z"
       style="fill:#cf776a;fill-opacity:1;fill-rule:nonzero;stroke:none;stroke-width:0.202361"
       id="path1699" />
    <path
       d="m 23.485683,89.031405 h 1.636844 c 0.172158,0 0.310871,0.134708 0.310871,0.302345 0,0.167636 -0.138713,0.302544 -0.310871,0.302544 h -1.636844 c -0.173185,0 -0.311692,-0.134908 -0.311692,-0.302544 0,-0.167637 0.138507,-0.302345 0.311692,-0.302345 z"
       style="fill:#7b3838;fill-opacity:1;fill-rule:nonzero;stroke:none;stroke-width:0.202361"
       id="path1701" />
    <path
       d="m 28.679794,89.031405 h 1.636639 c 0.172364,0 0.311897,0.134708 0.311897,0.302345 0,0.167636 -0.139533,0.302544 -0.311897,0.302544 h -1.636639 c -0.172364,0 -0.311076,-0.134908 -0.311076,-0.302544 0,-0.167637 0.138712,-0.302345 0.311076,-0.302345 z"
       style="fill:#7b3838;fill-opacity:1;fill-rule:nonzero;stroke:none;stroke-width:0.202361"
       id="path1703" />
    <path
       d="m 19.827459,88.455254 h 14.147199 c 0,-3.799565 -3.166782,-6.880487 -7.073497,-6.880487 -3.906716,0 -7.073702,3.080922 -7.073702,6.880487 z"
       style="fill:#7b3838;fill-opacity:1;fill-rule:nonzero;stroke:none;stroke-width:0.202361"
       id="path1705" />
    <path
       d="m 25.825321,82.806498 c -0.02318,7.92e-4 -0.0472,0.004 -0.07038,0.0086 -1.642384,0.316515 -3.041201,1.288607 -3.897277,2.62551 -0.122502,0.191186 -0.06156,0.44284 0.134814,0.562181 0.196372,0.118544 0.455123,0.06007 0.57783,-0.130916 0.73501,-1.148311 1.937455,-1.984898 3.347353,-2.25611 0.512988,-0.0912 0.428653,-0.829402 -0.09234,-0.809246 z"
       style="fill:#a44a4a;fill-opacity:1;fill-rule:nonzero;stroke:none;stroke-width:0.202361"
       id="path1711" />
    <path
       d="m 28.957014,95.855613 c 0,0.189392 -0.156975,0.342256 -0.351911,0.342256 -0.193909,0 -0.35191,-0.152864 -0.35191,-0.342256 0,-0.188588 0.158001,-0.342256 0.35191,-0.342256 0.194936,0 0.351911,0.153668 0.351911,0.342256 z"
       style="fill:#4d2525;fill-opacity:1;fill-rule:nonzero;stroke:none;stroke-width:0.202361"
       id="path1713" />
    <path
       d="m 20.051121,95.006651 c 0,0.374988 -0.312717,0.678929 -0.69828,0.678929 -0.386177,0 -0.698895,-0.303941 -0.698895,-0.678929 0,-0.374987 0.312718,-0.678928 0.698895,-0.678928 0.385563,0 0.69828,0.303941 0.69828,0.678928 z"
       style="fill:#fed883;fill-opacity:1;fill-rule:nonzero;stroke:none;stroke-width:0.202361"
       id="path1715" />
    <path
       d="m 35.148171,95.006651 c 0,0.374988 -0.312513,0.678929 -0.698896,0.678929 -0.385564,0 -0.698281,-0.303941 -0.698281,-0.678929 0,-0.374987 0.312717,-0.678928 0.698281,-0.678928 0.386383,0 0.698896,0.303941 0.698896,0.678928 z"
       style="fill:#fed883;fill-opacity:1;fill-rule:nonzero;stroke:none;stroke-width:0.202361"
       id="path1717" />
    <g
       transform="matrix(0.31006402,0,0,0.27130947,-5.1357918,57.452888)"
       id="g854">
      <path
         id="path858"
         style="fill:#c83737;stroke:none;stroke-width:1.329"
         d="m 94.105795,149.67093 a 8.9802551,8.9802551 0 0 0 8.979815,8.98033 8.9802551,8.9802551 0 0 0 8.98033,-8.98033 z" />
      <rect
         style="fill:#ffffff;stroke-width:1.15675"
         id="rect850"
         width="18.14743"
         height="4.6772151"
         x="93.91851"
         y="144.99371"
         ry="0" />
    </g>
  </g>
</svg>
