<?xml version="1.0" encoding="UTF-8" standalone="no"?>
<!-- Generator: Adobe Illustrator 24.1.1, SVG Export Plug-In . SVG Version: 6.00 Build 0)  -->

<svg
   version="1.1"
   id="Layer_1"
   x="0px"
   y="0px"
   viewBox="0 0 35.000001 27.086091"
   xml:space="preserve"
   width="35"
   height="27.086092"
   xmlns="http://www.w3.org/2000/svg"
   xmlns:svg="http://www.w3.org/2000/svg"><defs
   id="defs65" />
<style
   type="text/css"
   id="style48">
	.st0{fill:#FAFBFB;}
</style>
<g
   id="Layer_2_1_"
   transform="matrix(0.66225166,0,0,0.66225166,0.04966887,0)">
	<g
   id="Layer_1-2">
		<path
   class="st0"
   d="m 38.1,20.5 c 0,-0.6 0.2,-1.2 0.7,-1.7 l 5,-5 c 0.9,-0.9 2.4,-0.9 3.3,0 0,0 0,0 0,0 l 5,5 c 0.9,0.9 0.9,2.4 0,3.3 l -5,5 c -0.9,0.9 -2.4,0.9 -3.3,0 0,0 0,0 0,0 l -5,-5 c -0.4,-0.3 -0.7,-0.9 -0.7,-1.6 z"
   id="path50" />
		<path
   class="st0"
   d="m 11,7.4 c 0,-0.6 0.2,-1.2 0.7,-1.7 l 5,-5 c 0.9,-0.9 2.4,-0.9 3.3,0 0,0 0,0 0,0 l 5,5 c 0.5,0.4 0.7,1 0.7,1.7 C 25.7,8 25.4,8.6 25,9 l -5,5 c -0.9,0.9 -2.4,0.9 -3.3,0 0,0 0,0 0,0 l -5,-5 C 11.2,8.6 11,8 11,7.4 Z"
   id="path52" />
		<path
   class="st0"
   d="m 27.2,7.4 c 0,-0.6 0.2,-1.2 0.7,-1.7 l 5,-5 C 33.4,0.2 34,0 34.6,0 c 0.6,0 1.2,0.2 1.6,0.7 l 5,5 c 0.5,0.4 0.7,1 0.7,1.7 0,0.6 -0.3,1.2 -0.7,1.6 l -5,5 c -0.4,0.4 -1,0.7 -1.6,0.7 -0.6,0 -1.2,-0.2 -1.7,-0.7 l -5,-5 C 27.5,8.6 27.2,8 27.2,7.4 Z"
   id="path54" />
		<path
   class="st0"
   d="M 42.7,32.3 29,18.5 C 28.8,18.3 28.5,18 28.3,17.8 28.1,17.5 27.8,17.3 27.5,17 27.2,16.8 27,16.6 26.7,16.4 c -0.3,-0.2 -0.7,-0.2 -1,-0.2 -0.3,0 -0.7,0.1 -1,0.2 -0.3,0.2 -0.6,0.4 -0.9,0.6 -0.3,0.2 -0.5,0.5 -0.8,0.8 -0.3,0.3 -0.5,0.5 -0.7,0.7 L 8.7,32.3 C 8.2,32.7 8,33.4 8,34 c 0,0.6 0.2,1.2 0.7,1.6 l 5.3,5.3 c 0.2,-0.2 0.3,-0.4 0.5,-0.6 L 23,31.9 c 0.7,-0.8 1.8,-1.2 2.8,-1.2 1,0 2,0.4 2.7,1.1 l 2.2,2.2 6.3,6.3 c 0.2,0.2 0.4,0.4 0.5,0.6 l 5.3,-5.3 c 0.4,-0.4 0.7,-1 0.6,-1.6 0.1,-0.6 -0.2,-1.3 -0.7,-1.7 z"
   id="path56" />
		<path
   class="st0"
   d="m 7.3,12.1 c 0.6,0 1.2,0.2 1.6,0.7 l 5,5 c 0.9,0.9 0.9,2.4 0,3.4 l -5,5 c -0.4,0.4 -1,0.7 -1.6,0.7 -0.6,0 -1.2,-0.2 -1.7,-0.7 l -5,-5 c -0.9,-0.9 -0.9,-2.4 0,-3.4 l 5,-5 c 0.5,-0.5 1.1,-0.7 1.7,-0.7 z"
   id="path58" />
	</g>
</g>
</svg>
