<svg id="SvgjsSvg1001" width="288" height="288" xmlns="http://www.w3.org/2000/svg" version="1.1" xmlns:xlink="http://www.w3.org/1999/xlink" xmlns:svgjs="http://svgjs.com/svgjs"><defs id="SvgjsDefs1002"></defs><g id="SvgjsG1008" transform="matrix(1,0,0,1,0,0)"><svg xmlns="http://www.w3.org/2000/svg" width="288" height="288" version="1.0" viewBox="0 0 2432 954"><g transform="matrix(.1 0 0 -.1 0 954)" fill="#ffffff" class="color000 svgShape"><path d="M11920 7901l0-1641 155 0 155 0 0 775 0 775 403 0c417 1 494 6 636 41 327 82 549 288 625 579 26 99 32 305 12 419-62 356-317 581-748 662-105 20-155 22-675 26l-563 5 0-1641zm1220 1320c223-58 383-196 441-380 27-85 29-238 5-330-52-201-216-342-457-391-84-18-137-20-496-20l-403 0 0 576 0 575 413-4c386-3 417-5 497-26zM15346 8450c-504-58-875-407-961-904-32-185-15-428 42-601 116-355 394-614 754-704 232-57 495-49 705 23 457 155 734 558 734 1066 0 508-277 911-733 1066-147 50-375 73-541 54zm367-279c227-58 422-213 521-413 77-157 91-224 91-428 0-192-13-259-74-395-105-231-318-400-576-456-95-21-304-15-400 10-276 72-487 272-573 541-60 186-60 415 0 600 98 304 350 515 669 560 89 12 254 3 342-19zM21290 8449c-344-40-647-253-807-569-40-78-87-220-105-316-17-91-17-377 1-474 73-407 324-708 691-830 321-107 765-57 1025 115 106 71 275 248 275 288 0 7-46 50-102 97l-101 85-21-30c-43-61-151-166-211-205-220-143-518-186-759-108-180 58-358 222-447 411-34 74-68 199-76 285l-6 62 898 0 898 0-6 178c-8 252-53 417-159 579-211 323-569 480-988 432zm310-274c36-9 108-36 160-62 80-39 108-59 185-137 64-64 102-112 128-163 41-78 77-203 77-265l0-38-750 0-750 0 0 23c0 12 15 65 33 119 100 288 335 495 612 538 77 12 222 4 305-15zM23910 8453c-131-15-253-65-352-144-68-53-177-174-205-226-10-18-21-33-25-33-5 0-8 44-8 98 0 55-3 133-6 175l-7 77-143 0-144 0 5-57c16-189 25-644 25-1317l0-766 139 0 140 0 4 648c4 697 5 708 60 853 87 230 270 369 528 402 63 8 106 8 151 0 35-6 64-10 65-9 7 5 32 271 26 277-20 20-162 32-253 22zM16935 8378c4-13 154-493 334-1068l328-1045 150-3 149-3 295 866c162 475 296 865 299 865 3 0 147-388 320-862l315-863 150-3 150-2 308 1047c169 577 310 1058 314 1071l5 22-144 0-144 0-249-885c-137-487-252-882-256-878-4 5-147 402-317 883l-310 875-138 3-139 3-295-885c-162-487-298-882-301-878-4 4-121 402-260 885l-254 877-158 0-157 0 5-22zM2842 8331c-29-11-74-35-100-55-26-19-239-227-474-463-502-503-483-478-483-653 0-176-20-149 493-658 240-238 456-446 479-463 65-46 118-61 213-62 65 0 99 5 145 23 56 21 87 49 518 479 400 398 462 464 489 519 57 115 48 262-22 372-16 25-226 242-467 482-502 501-487 490-648 495-70 3-101-1-143-16zM5494 8341c-96-24-122-47-577-500-512-510-509-506-515-657-5-99 14-170 60-235 18-26 231-242 473-481 319-315 453-440 486-456 101-49 246-49 343 0 26 13 206 185 498 476 531 530 513 506 513 677 0 170 17 147-508 672-516 516-502 505-657 510-47 1-99-2-116-6zM1087 6390c-88-22-123-53-570-499-529-527-512-504-512-686 0-170-20-144 507-672 528-528 501-508 673-508 179 0 153-20 676 504 526 525 504 496 504 681 0 101-3 121-24 165-19 39-125 152-475 503-515 518-510 513-659 518-45 2-99-1-120-6zM7239 6206c-26-7-68-26-95-44-27-17-245-228-485-469-510-512-494-490-494-663 0-176-15-156 512-682 523-522 498-503 673-503 173 0 150-18 672 504 478 478 484 485 508 609 15 75 2 179-31 245-23 46-888 922-950 962-79 51-209 68-310 41zM4040 5714c-25-9-72-35-105-58-37-25-563-545-1326-1311-1436-1442-1314-1303-1314-1485 0-163-17-141 503-667l447-452 755 751c535 533 774 764 821 794 37 24 102 55 145 70 69 24 94 28 199 27 102 0 132-4 200-26 44-15 103-42 130-60 42-29 1484-1464 1544-1537l20-25 454 455c339 339 460 467 476 501 51 110 49 243-6 353-20 40-283 309-1272 1301-685 687-1268 1267-1296 1288-92 72-140 90-240 94-65 2-103-1-135-13zM13380 5544c-19-2-78-9-130-15-297-34-637-139-889-275-587-317-1019-868-1220-1556-176-602-170-1301 16-1918 129-431 356-816 653-1110 353-350 797-565 1332-646 141-21 537-29 713-15 446 37 780 131 1185 332 275 137 420 269 520 474 58 119 75 197 67 308-19 253-171 413-422 441-80 10-187-13-278-59-40-20-135-81-212-135-295-210-419-267-687-316-116-21-418-30-548-15-378 43-671 181-926 435-295 296-459 682-496 1169-32 425 69 829 290 1162 315 476 855 727 1455 677 168-14 312-47 433-99 114-50 187-100 321-221 165-150 221-192 308-233 197-93 443-61 578 77 122 123 176 358 132 569-94 448-708 819-1565 946-129 19-535 34-630 23zM18205 5464c-11-2-45-9-75-15-294-59-639-426-988-1050-440-787-1046-2311-1257-3164-75-301-98-447-99-625-1-170 18-249 81-340 74-105 175-161 334-182 186-24 339 21 440 130 101 109 150 231 229 573 112 485 240 911 437 1459 319 884 687 1642 916 1884l47 51 56-60c251-273 640-1101 956-2035 117-346 226-728 261-917l7-33-638 0c-699 0-714-1-837-60-36-17-91-55-123-85-99-91-142-199-142-355 0-251 131-417 376-480 74-19 114-20 1115-20 734 0 1054 3 1091 11 180 39 288 151 319 332 45 268-92 882-380 1701-384 1089-795 1994-1155 2540-268 407-524 648-763 719-56 17-175 29-208 21zM20464 5415c-188-41-329-184-370-374-58-277 76-530 325-613 65-22 77-22 674-26l607-3 0-1948c0-1915 0-1949 20-2026 35-136 105-229 218-288 89-46 157-61 272-60 251 2 438 145 486 372 11 55 14 378 14 2008l0 1942 603 3c592 4 603 4 668 26 224 75 350 271 336 522-13 243-156 417-382 465-99 21-3375 21-3471 0z" fill="#ffffff" class="color000 svgShape"></path></g></svg></g></svg>