<svg width="41" height="42" xmlns="http://www.w3.org/2000/svg" xmlns:xlink="http://www.w3.org/1999/xlink" xml:space="preserve" overflow="hidden"><defs><clipPath id="clip0"><rect x="402" y="556" width="41" height="42"/></clipPath></defs><g clip-path="url(#clip0)" transform="translate(-402 -556)"><path d="M21.3542 29.5542 21.3542 31.8177 19.6458 31.8177 19.6458 29.5542C18.6635 29.2125 17.9375 28.2729 17.9375 27.1198 17.9375 25.7104 19.0906 24.5573 20.5 24.5573 21.9094 24.5573 23.0625 25.7104 23.0625 27.1198 23.0625 28.2302 22.3365 29.1698 21.3542 29.5542ZM14.0938 13.8802C14.0938 10.3354 16.9552 7.47396 20.5 7.47396 24.0448 7.47396 26.9062 10.3354 26.9062 13.8802L26.9062 18.6208 20.5 18.151 14.0938 18.6208 14.0938 13.8802ZM29.4688 18.7917 29.4688 13.8802C29.4688 8.92604 25.4542 4.91146 20.5 4.91146 15.5458 4.91146 11.5312 8.92604 11.5312 13.8802L11.5312 18.7917 8.54167 19.0052 8.54167 35.2344 20.5 36.0885 32.4583 35.2344 32.4583 19.0052 29.4688 18.7917Z" transform="matrix(1 0 0 1.02439 402 556)"/></g></svg>