<svg xmlns="http://www.w3.org/2000/svg" viewBox="0 0 2048 2048">
  <path d="M1472 896q119 0 224 45t183 124 123 183 46 224q0 119-45 224t-124 183-183 123-224 46q-119 0-224-45t-183-124-123-183-46-224q0-119 45-224t124-183 183-123 224-46zm0 1024q93 0 174-35t142-96 96-142 36-175q0-93-35-174t-96-142-142-96-175-36q-93 0-174 35t-142 96-96 142-36 175q0 93 35 174t96 142 142 96 175 36zm64-512h192v128h-320v-384h128v256zM128 640H0V512h128v128zm0 256H0V768h128v128zm0 256H0v-128h128v128zm0 256H0v-128h128v128zm0 256H0v-128h128v128zm0 128v128H0v-128h128zm0 128h128v128H128v-128zm256 0h128v128H384v-128zm256 0h128v128H640v-128zM128 128H0V0h128v128zm256 0H256V0h128v128zm256 0H512V0h128v128zm256 0H768V0h128v128zm256 0h-128V0h128v128zm256 0h-128V0h128v128zm0 128V128h128v128h-128zm128 256h-128V384h128v128zM128 384H0V256h128v128zm1280 256h128v128h-128V640z" />
</svg>