<svg xmlns="http://www.w3.org/2000/svg" viewBox="0 0 2048 2048">
  <path d="M1371 0l549 549v1499h-632q49-57 78-128h426V640h-512V128H384v504q-11 4-29 12t-39 19-37 20-23 19V0h1115zm37 219v293h293l-293-293zm-64 1297q0 39-5 79t-18 77-34 71-53 59q-8 54-35 99t-67 77-90 51-103 19q-68 0-130-29t-105-83q-43 53-105 82t-130 30q-53 0-103-18t-90-51-67-78-35-99q-32-25-53-58t-33-71-18-78-6-79q0-36 4-71t15-68 31-61 50-52q-6-28-6-58 0-65 26-124t78-101q7-43 30-81t58-68 76-47 86-17q54 0 104 14t88 55q37-41 87-55t105-14q44 0 86 17t76 46 57 68 31 82q51 42 77 101t27 124q0 30-6 58 30 23 49 51t31 61 16 68 4 72zm-875 404q31 0 61-11t55-32 40-49 15-61v-487H540q-16 23-40 35t-52 13q-23 0-43-9t-36-24-24-35-9-44q0-23 9-43t24-36 35-24 44-9q27 0 51 12t41 36h100v-128q0-36-6-60t-22-40-39-21-61-7q-19 0-41 10t-37 22q-26 20-35 39t-12 38-9 34-23 29q-69 50-69 138 0 21 5 39t10 39q42 8 78 28t63 49 45 66 23 80q23 16 36 40t14 53q0 23-9 43t-24 36-35 24-44 9q-23 0-43-9t-36-24-24-35-9-44q0-26 12-50t33-40q-5-22-16-41t-28-32-38-21-43-8h-47q-11 26-14 53t-3 55q0 25 2 53t11 56 22 51 38 39q17 11 24 22t9 32q2 33 17 60t38 48 54 32 62 11zm747-404q0-51-8-81t-20-47-27-26-26-17-21-19-8-33q0-20 8-40t8-47q0-88-69-138-18-13-23-29t-8-34-13-37-35-40q-14-11-36-21t-42-11q-36 0-60 6t-40 22-21 39-7 61v640q27 0 50-10t40-27 28-41 10-50v-100q-23-16-35-40t-13-52q0-23 9-43t24-36 35-24 44-9q23 0 43 9t36 24 24 35 9 44q0 27-12 51t-36 41v100q0 53-20 99t-54 81-80 55-99 21q6 29 22 52t39 40 50 26 57 10q32 0 62-11t53-31 39-48 17-61q2-20 9-31t24-23q23-15 37-38t23-51 10-56 3-54z" />
</svg>