<svg width="128" height="114" xmlns="http://www.w3.org/2000/svg" xmlns:xlink="http://www.w3.org/1999/xlink" xml:space="preserve" overflow="hidden"><defs><clipPath id="clip0"><rect x="1390" y="1626" width="128" height="114"/></clipPath></defs><g clip-path="url(#clip0)" transform="translate(-1390 -1626)"><path d="M1442.26 1687.87C1442.26 1698.68 1433.46 1707.48 1422.58 1707.48 1411.69 1707.48 1402.89 1698.68 1402.89 1687.87 1402.89 1677.04 1411.69 1668.24 1422.58 1668.24 1433.46 1668.24 1442.26 1677.04 1442.26 1687.87ZM1461.98 1629C1451.1 1629 1442.26 1637.8 1442.26 1648.64 1442.26 1659.47 1451.1 1668.24 1461.98 1668.24 1472.87 1668.24 1481.67 1659.47 1481.67 1648.64 1481.67 1637.8 1472.87 1629 1461.98 1629ZM1489.56 1683.23C1480.85 1683.23 1473.78 1690.26 1473.78 1698.9 1473.78 1707.57 1480.85 1714.61 1489.56 1714.61 1498.27 1714.61 1505.3 1707.57 1505.3 1698.9 1505.3 1690.26 1498.27 1683.23 1489.56 1683.23ZM1450.15 1734.94C1450.15 1719.76 1437.81 1707.48 1422.58 1707.48 1407.34 1707.48 1395 1719.76 1395 1734.94M1486.69 1683.48C1482.17 1674.46 1472.8 1668.24 1461.98 1668.24 1453.49 1668.24 1445.92 1672.04 1440.84 1678.04M1513 1735C1513 1734.28 1513 1734.28 1513 1734.28 1511.11 1723.12 1501.33 1714.61 1489.56 1714.61 1477.79 1714.61 1468.01 1723.09 1466.08 1734.28 1466.08 1735 1466.08 1735 1466.08 1735" stroke="#000000" stroke-width="5.72917" stroke-linecap="square" stroke-miterlimit="8" fill-rule="evenodd"/></g></svg>